<?xml version="1.0" encoding="utf-8"?>
<!-- Generator: Adobe Illustrator 25.2.0, SVG Export Plug-In . SVG Version: 6.00 Build 0)  -->
<svg version="1.1" id="Layer_1" xmlns="http://www.w3.org/2000/svg" xmlns:xlink="http://www.w3.org/1999/xlink" x="0px" y="0px"
	 viewBox="0 0 505 185" style="enable-background:new 0 0 505 185;" xml:space="preserve">
<style type="text/css">
	.st0{fill:#EEA8BE;}
	.st1{fill:#D83662;}
	.st2{fill:#EED7BC;}
	.st3{fill:#42454A;stroke:#42454A;stroke-miterlimit:10;}
	.st4{fill:none;stroke:#42454A;stroke-width:3;stroke-linecap:round;}
	.st5{fill:#42454A;}
	.st6{fill:none;}
	.st7{fill:#43454B;}
	.st8{font-family:'Lato-Black';}
	.st9{font-size:12.4631px;}
	.st10{fill:#EAB570;}
	.st11{enable-background:new    ;}
	.st12{fill:#FFFFFF;}
</style>
<rect x="126.7" y="37.6" transform="matrix(0.7071 -0.7071 0.7071 0.7071 -12.3061 155.6332)" class="st0" width="110.1" height="110.1"/>
<polygon class="st1" points="259.5,92.7 181.7,170.5 181.7,14.8 "/>
<rect x="282.1" y="37.6" transform="matrix(0.7071 -0.7071 0.7071 0.7071 33.2287 265.5578)" class="st2" width="110.1" height="110.1"/>
<g>
	<path class="st3" d="M216,34.6c11.5-9.6,26.3-15.4,42.4-15.4c17.1,0,32.7,6.5,44.4,17.2l1-1c-12-10.9-27.9-17.6-45.4-17.6
		c-16.5,0-31.6,5.9-43.3,15.8L216,34.6z"/>
	<line class="st4" x1="291.2" y1="35.7" x2="303.8" y2="35.7"/>
	<line class="st4" x1="303.8" y1="35.7" x2="298.4" y2="24.3"/>
</g>
<g>
	<path class="st3" d="M299.6,148.1c-10.9,9.1-24.9,14.6-40.2,14.6c-16.2,0-31-6.2-42.2-16.3l-0.9,0.9c11.4,10.3,26.5,16.7,43.1,16.7
		c15.7,0,30-5.6,41.1-15L299.6,148.1z"/>
	<line class="st4" x1="228.3" y1="147" x2="216.3" y2="147"/>
	<line class="st4" x1="216.3" y1="147" x2="221.4" y2="157.9"/>
</g>
<g>
	<g>
		<g>
			<path class="st5" d="M244.9,32.4c-0.4,0.1-0.6,0.2-1,0.3c-1-3-1.5-4.5-2.4-7.4c0.5-0.2,0.7-0.2,1.2-0.4
				C243.6,27.9,244,29.4,244.9,32.4z"/>
			<path class="st5" d="M248.5,31.5c-0.4,0.1-0.8,0.1-1.1-0.1c-0.3-0.2-0.5-0.5-0.6-0.9c-0.3-1.3-0.5-2-0.8-3.3
				c-0.3,0.1-0.4,0.1-0.7,0.2c-0.1,0-0.1,0-0.2,0c0,0-0.1-0.1-0.1-0.1c0-0.2-0.1-0.2-0.1-0.4c0.4-0.2,0.6-0.2,1-0.4
				c-0.1-0.7-0.1-1-0.2-1.7c0-0.1,0-0.1,0-0.2c0,0,0.1-0.1,0.2-0.1c0.2-0.1,0.3-0.1,0.6-0.1c0.2,0.7,0.3,1.1,0.4,1.9
				c0.7-0.2,1-0.2,1.7-0.4c0.1,0.3,0.1,0.4,0.1,0.7c-0.7,0.1-1,0.2-1.7,0.4c0.3,1.3,0.5,1.9,0.7,3.2c0.1,0.2,0.2,0.4,0.3,0.5
				c0.1,0.1,0.3,0.1,0.5,0.1c0.1,0,0.2-0.1,0.3-0.1c0.1,0,0.1-0.1,0.2-0.1s0.1-0.1,0.1-0.1c0,0,0.1-0.1,0.1-0.1c0,0,0.1,0,0.2,0.1
				c0.2,0.2,0.2,0.2,0.4,0.4c-0.1,0.2-0.3,0.3-0.5,0.5C249,31.4,248.8,31.5,248.5,31.5z"/>
			<path class="st5" d="M252.4,25.1c0.4,0,0.7,0,1,0s0.6,0.2,0.9,0.4c0.2,0.2,0.4,0.4,0.6,0.7c0.2,0.3,0.2,0.6,0.3,1
				c0,0.2,0,0.3,0,0.3c0,0.1-0.1,0.1-0.2,0.1c-1.6,0.1-2.4,0.2-3.9,0.5c0.1,0.3,0.2,0.6,0.3,0.9c0.1,0.2,0.3,0.4,0.5,0.6
				s0.4,0.2,0.6,0.3c0.2,0.1,0.5,0.1,0.7,0c0.2,0,0.5-0.1,0.6-0.2c0.2-0.1,0.3-0.2,0.5-0.2c0.1-0.1,0.2-0.2,0.3-0.2
				c0.1-0.1,0.2-0.1,0.2-0.1c0.1,0,0.2,0,0.2,0.1c0.1,0.1,0.2,0.2,0.3,0.3c-0.1,0.2-0.2,0.3-0.4,0.4c-0.2,0.1-0.3,0.2-0.5,0.3
				c-0.2,0.1-0.4,0.2-0.6,0.2c-0.2,0.1-0.4,0.1-0.6,0.1c-0.4,0-0.7,0-1.1,0c-0.3-0.1-0.6-0.2-0.9-0.4c-0.3-0.2-0.5-0.5-0.7-0.8
				s-0.3-0.7-0.4-1.2c-0.1-0.4-0.1-0.7,0-1.1c0.1-0.3,0.2-0.7,0.4-1c0.2-0.3,0.5-0.5,0.8-0.7C251.5,25.2,251.9,25.1,252.4,25.1z
				 M252.5,25.8c-0.5,0.1-0.9,0.3-1.2,0.6S251,27,251,27.5c1.3-0.2,1.9-0.3,3.2-0.4c0-0.2-0.1-0.4-0.2-0.6c-0.1-0.2-0.2-0.3-0.3-0.5
				c-0.2-0.1-0.3-0.2-0.5-0.3C253,25.7,252.7,25.7,252.5,25.8z"/>
			<path class="st5" d="M256.6,30.3c-0.1-2.2-0.2-3.3-0.3-5.5c0.3,0,0.4,0,0.6,0c0.1,0,0.2,0,0.2,0c0,0,0.1,0.1,0.1,0.2
				c0,0.3,0.1,0.5,0.1,0.9c0.2-0.4,0.4-0.7,0.8-0.9c0.3-0.2,0.7-0.3,1.1-0.3c0.2,0,0.3,0,0.5,0c0.1,0,0.3,0.1,0.4,0.2
				c-0.1,0.3-0.1,0.4-0.2,0.7c0,0.1-0.1,0.1-0.2,0.1c-0.1,0-0.1,0-0.3-0.1s-0.3,0-0.5,0c-0.4,0-0.7,0.1-0.9,0.3
				c-0.2,0.2-0.4,0.5-0.6,0.9c0,1.4,0.1,2.1,0.1,3.5C257.2,30.3,257,30.3,256.6,30.3z"/>
			<path class="st5" d="M265,30.5c-0.2,0-0.3,0-0.4,0c-0.1,0-0.2,0-0.2-0.1c-0.1,0-0.1-0.1-0.1-0.2c0-0.2,0-0.3-0.1-0.5
				c-0.2,0.1-0.3,0.2-0.5,0.3s-0.3,0.2-0.5,0.2c-0.2,0.1-0.3,0.1-0.5,0.1c-0.2,0-0.4,0-0.6,0c-0.2,0-0.4,0-0.6-0.1
				c-0.2-0.1-0.3-0.2-0.5-0.3c-0.1-0.1-0.2-0.3-0.3-0.5s-0.1-0.4-0.1-0.7c0-0.2,0.1-0.4,0.2-0.6c0.1-0.2,0.3-0.4,0.6-0.5
				s0.7-0.3,1.1-0.3c0.5-0.1,1-0.1,1.7,0c0-0.2,0-0.3,0-0.4c0-0.4,0-0.8-0.2-1c-0.2-0.2-0.5-0.4-0.9-0.4c-0.3,0-0.5,0-0.7,0
				c-0.2,0-0.3,0.1-0.5,0.2s-0.3,0.1-0.3,0.2c-0.1,0.1-0.2,0.1-0.3,0.1c-0.1,0-0.1,0-0.2-0.1c-0.1,0-0.1-0.1-0.1-0.1
				c-0.1-0.1-0.1-0.2-0.2-0.3c0.3-0.3,0.7-0.5,1.1-0.6c0.4-0.1,0.8-0.2,1.3-0.1c0.3,0,0.6,0.1,0.9,0.2c0.3,0.1,0.5,0.3,0.6,0.5
				c0.2,0.2,0.3,0.4,0.3,0.7c0.1,0.3,0.1,0.6,0,0.9C265.2,28.4,265.1,29.1,265,30.5z M262.5,29.7c0.2,0,0.3,0,0.5,0s0.3-0.1,0.4-0.1
				c0.1-0.1,0.3-0.1,0.4-0.2c0.1-0.1,0.3-0.2,0.4-0.3c0-0.5,0.1-0.7,0.1-1.1c-0.5,0-0.9,0-1.2,0c-0.3,0-0.6,0.1-0.8,0.2
				c-0.2,0.1-0.4,0.2-0.5,0.3c-0.1,0.1-0.2,0.3-0.2,0.4c0,0.2,0,0.3,0.1,0.4c0,0.1,0.1,0.2,0.2,0.3c0.1,0.1,0.2,0.1,0.3,0.2
				C262.2,29.7,262.4,29.7,262.5,29.7z"/>
			<path class="st5" d="M268.1,31.1c-0.4-0.1-0.8-0.3-1-0.5c-0.2-0.3-0.3-0.6-0.2-1.1c0.2-1.3,0.3-2,0.5-3.3c-0.3,0-0.4-0.1-0.7-0.1
				c-0.1,0-0.1,0-0.2-0.1c0,0-0.1-0.1,0-0.2c0-0.2,0-0.2,0-0.4c0.4,0,0.6,0,1,0c0.2-0.7,0.3-1,0.5-1.6c0-0.1,0-0.1,0.1-0.1
				c0,0,0.1,0,0.2,0c0.2,0,0.3,0.1,0.6,0.1c-0.1,0.8-0.2,1.1-0.3,1.9c0.7,0.1,1.1,0.2,1.8,0.3c-0.1,0.3-0.1,0.4-0.1,0.7
				c-0.7-0.1-1-0.2-1.7-0.3c-0.2,1.3-0.3,2-0.5,3.3c0,0.2,0,0.4,0.1,0.5c0.1,0.1,0.2,0.2,0.4,0.2c0.1,0,0.2,0,0.3,0
				c0.1,0,0.2,0,0.2,0c0.1,0,0.1,0,0.2-0.1c0,0,0.1,0,0.1,0c0,0,0.1,0,0.1,0.1c0.1,0.2,0.1,0.3,0.2,0.5c-0.2,0.1-0.4,0.2-0.7,0.2
				C268.6,31.1,268.4,31.1,268.1,31.1z"/>
			<path class="st5" d="M274.2,26.6c0.4,0.1,0.7,0.2,1,0.4c0.3,0.2,0.5,0.4,0.6,0.7c0.2,0.3,0.2,0.6,0.3,0.9c0,0.3,0,0.7-0.1,1.1
				c0,0.2-0.1,0.2-0.1,0.3c0,0-0.1,0-0.2,0c-1.5-0.5-2.3-0.7-3.8-1.1c-0.1,0.3-0.1,0.6-0.1,0.9c0,0.3,0.1,0.5,0.2,0.7
				c0.1,0.2,0.3,0.4,0.5,0.5c0.2,0.1,0.4,0.2,0.7,0.3c0.2,0.1,0.5,0.1,0.6,0.1c0.2,0,0.4,0,0.5,0c0.2,0,0.3,0,0.4-0.1
				c0.1,0,0.2,0,0.2,0c0.1,0,0.1,0.1,0.2,0.2c0.1,0.2,0.1,0.3,0.2,0.4c-0.2,0.1-0.3,0.2-0.5,0.2c-0.2,0-0.4,0.1-0.6,0.1
				c-0.2,0-0.4,0-0.6,0c-0.2,0-0.4-0.1-0.6-0.1c-0.4-0.1-0.7-0.3-1-0.5c-0.3-0.2-0.5-0.5-0.7-0.8c-0.2-0.3-0.3-0.6-0.3-1
				c-0.1-0.4,0-0.8,0.1-1.3c0.1-0.4,0.2-0.7,0.4-1c0.2-0.3,0.5-0.5,0.7-0.7c0.3-0.2,0.6-0.3,1-0.3C273.3,26.4,273.8,26.5,274.2,26.6
				z M274,27.3c-0.5-0.1-0.9-0.1-1.3,0.1c-0.4,0.2-0.6,0.5-0.8,1c1.3,0.3,1.9,0.5,3.2,0.9c0.1-0.2,0.1-0.4,0.1-0.6
				c0-0.2-0.1-0.4-0.2-0.6c-0.1-0.2-0.2-0.3-0.4-0.4C274.5,27.5,274.3,27.4,274,27.3z"/>
		</g>
	</g>
</g>
<g>
	<g>
		<path class="st5" d="M242.5,153.8c-0.5-0.1-0.7-0.2-1.1-0.4c0.9-2.8,1.4-4.2,2.3-7.1c0.4,0.1,0.6,0.2,1,0.3
			C243.8,149.5,243.4,150.9,242.5,153.8z"/>
		<path class="st5" d="M246.4,154.9c-0.5-0.1-0.8-0.3-1-0.6c-0.2-0.3-0.2-0.6-0.1-1.1c0.3-1.2,0.5-1.9,0.8-3.1
			c-0.3-0.1-0.4-0.1-0.7-0.2c-0.1,0-0.1,0-0.1-0.1c0,0,0-0.1,0-0.2c0-0.1,0.1-0.2,0.1-0.4c0.4,0.1,0.5,0.1,0.9,0.1
			c0.2-0.6,0.4-0.9,0.6-1.5c0,0,0-0.1,0.1-0.1s0.1,0,0.2,0c0.2,0,0.3,0.1,0.5,0.1c-0.2,0.7-0.2,1.1-0.4,1.8c0.6,0.1,0.9,0.2,1.6,0.3
			c0,0.3-0.1,0.4-0.1,0.6c-0.6-0.1-1-0.2-1.6-0.3c-0.3,1.2-0.4,1.8-0.7,3.1c0,0.2,0,0.4,0.1,0.5c0.1,0.1,0.2,0.2,0.4,0.3
			c0.1,0,0.2,0,0.3,0c0.1,0,0.2,0,0.2,0s0.1,0,0.2-0.1c0,0,0.1,0,0.1,0c0.1,0,0.1,0,0.1,0.1c0.1,0.2,0.1,0.3,0.2,0.5
			c-0.2,0.1-0.5,0.2-0.7,0.2C247,154.9,246.7,154.9,246.4,154.9z"/>
		<path class="st5" d="M252.2,150.4c0.3,0,0.6,0.1,0.9,0.3c0.3,0.1,0.5,0.3,0.7,0.5c0.2,0.2,0.3,0.5,0.4,0.8c0.1,0.3,0.1,0.6,0.1,1
			c0,0.1,0,0.2-0.1,0.3c0,0-0.1,0.1-0.2,0.1c-1.6-0.1-2.3-0.2-3.9-0.5c0,0.3,0,0.6,0,0.9c0.1,0.3,0.2,0.5,0.3,0.7s0.3,0.3,0.5,0.5
			c0.2,0.1,0.5,0.2,0.8,0.2c0.3,0,0.5,0,0.7,0c0.2,0,0.4-0.1,0.5-0.1s0.3-0.1,0.4-0.1c0.1,0,0.2-0.1,0.2-0.1c0.1,0,0.2,0,0.2,0.1
			c0.1,0.1,0.2,0.2,0.3,0.4c-0.1,0.1-0.3,0.2-0.5,0.3c-0.2,0.1-0.4,0.2-0.6,0.2c-0.2,0-0.4,0.1-0.7,0.1c-0.2,0-0.5,0-0.7,0
			c-0.4-0.1-0.8-0.2-1.1-0.3s-0.6-0.4-0.8-0.7c-0.2-0.3-0.4-0.6-0.4-1c-0.1-0.4-0.1-0.8,0-1.2c0.1-0.4,0.2-0.7,0.4-1
			c0.2-0.3,0.4-0.5,0.7-0.7c0.3-0.2,0.6-0.3,0.9-0.4C251.4,150.3,251.8,150.3,252.2,150.4z M252.1,151.1c-0.5-0.1-0.9,0-1.2,0.2
			c-0.3,0.2-0.5,0.5-0.7,1c1.2,0.2,1.9,0.3,3.1,0.4c0-0.2,0-0.4,0-0.6c0-0.2-0.1-0.3-0.2-0.5c-0.1-0.1-0.2-0.3-0.4-0.3
			C252.5,151.1,252.3,151.1,252.1,151.1z"/>
		<path class="st5" d="M255.4,156c0.1-2.1,0.2-3.1,0.3-5.2c0.2,0,0.3,0,0.6,0c0.1,0,0.2,0,0.2,0.1c0,0,0.1,0.1,0.1,0.2
			c0,0.3,0,0.5,0,0.8c0.2-0.4,0.5-0.6,0.7-0.8c0.3-0.2,0.6-0.3,1-0.3c0.2,0,0.3,0,0.4,0s0.2,0.1,0.3,0.1c0,0.3-0.1,0.4-0.1,0.7
			c0,0.1-0.1,0.1-0.2,0.1c0,0-0.1,0-0.2,0c-0.1,0-0.3,0-0.5,0c-0.3,0-0.6,0.1-0.9,0.3c-0.2,0.2-0.4,0.4-0.6,0.8c0,1.3-0.1,2-0.1,3.3
			C256,156,255.8,156,255.4,156z"/>
		<path class="st5" d="M264.5,155.8c-0.2,0-0.3,0-0.5,0c-0.1,0-0.2,0-0.3,0c-0.1,0-0.1-0.1-0.1-0.2c-0.1-0.2-0.1-0.3-0.2-0.5
			c-0.2,0.1-0.3,0.3-0.4,0.4c-0.1,0.1-0.3,0.2-0.5,0.3c-0.2,0.1-0.3,0.1-0.5,0.2c-0.2,0-0.4,0.1-0.6,0.1c-0.2,0-0.5,0-0.7-0.1
			c-0.2,0-0.4-0.1-0.5-0.2c-0.2-0.1-0.3-0.3-0.4-0.4c-0.1-0.2-0.1-0.4-0.2-0.6c0-0.2,0.1-0.4,0.2-0.6c0.1-0.2,0.3-0.4,0.6-0.5
			c0.3-0.2,0.6-0.3,1.1-0.4c0.5-0.1,1-0.2,1.7-0.3c0-0.2,0-0.2,0-0.4c0-0.4-0.2-0.7-0.4-0.9c-0.2-0.2-0.5-0.3-0.9-0.2
			c-0.2,0-0.4,0.1-0.6,0.1c-0.2,0.1-0.3,0.1-0.4,0.2c-0.1,0.1-0.2,0.2-0.3,0.2c-0.1,0.1-0.2,0.1-0.3,0.1c-0.1,0-0.1,0-0.2,0
			c0,0-0.1-0.1-0.1-0.1c-0.1-0.1-0.1-0.2-0.2-0.3c0.3-0.3,0.6-0.5,1-0.7c0.3-0.2,0.7-0.2,1.2-0.3c0.3,0,0.6,0,0.8,0.1
			c0.2,0.1,0.5,0.2,0.6,0.3c0.2,0.2,0.3,0.3,0.4,0.6c0.1,0.2,0.2,0.5,0.2,0.8C264.3,153.8,264.4,154.4,264.5,155.8z M261.7,155.4
			c0.2,0,0.4,0,0.5-0.1c0.2,0,0.3-0.1,0.4-0.2c0.1-0.1,0.3-0.2,0.4-0.3c0.1-0.1,0.2-0.2,0.3-0.3c0-0.4-0.1-0.6-0.1-1.1
			c-0.5,0-0.9,0.1-1.2,0.2c-0.3,0.1-0.6,0.2-0.8,0.3c-0.2,0.1-0.3,0.2-0.4,0.3c-0.1,0.1-0.1,0.3-0.1,0.4c0,0.1,0,0.3,0.1,0.4
			c0.1,0.1,0.1,0.2,0.2,0.2c0.1,0.1,0.2,0.1,0.3,0.1C261.4,155.4,261.6,155.4,261.7,155.4z"/>
		<path class="st5" d="M268,155.3c-0.5,0.1-0.9,0-1.2-0.2c-0.3-0.2-0.5-0.5-0.5-0.9c-0.2-1.3-0.3-1.9-0.5-3.2
			c-0.3,0-0.4,0.1-0.7,0.1c-0.1,0-0.1,0-0.2,0c0,0-0.1-0.1-0.1-0.1c0-0.2,0-0.2,0-0.4c0.4-0.1,0.5-0.1,0.9-0.2c0-0.6,0-1,0-1.6
			c0-0.1,0-0.1,0-0.1c0,0,0.1-0.1,0.1-0.1c0.2,0,0.3,0,0.5-0.1c0.1,0.7,0.2,1.1,0.3,1.8c0.6-0.1,0.9-0.2,1.6-0.3
			c0.1,0.3,0.1,0.4,0.1,0.6c-0.6,0.1-1,0.2-1.6,0.3c0.2,1.2,0.3,1.9,0.5,3.1c0,0.2,0.1,0.4,0.3,0.5c0.1,0.1,0.3,0.1,0.5,0.1
			c0.1,0,0.2,0,0.3-0.1c0.1,0,0.1-0.1,0.2-0.1c0.1,0,0.1-0.1,0.1-0.1c0,0,0.1-0.1,0.1-0.1c0.1,0,0.1,0,0.2,0.1
			c0.2,0.2,0.2,0.2,0.4,0.4c-0.2,0.2-0.3,0.3-0.6,0.5C268.5,155.2,268.3,155.3,268,155.3z"/>
		<path class="st5" d="M271.6,149c0.3-0.1,0.6-0.1,0.9-0.1s0.6,0.1,0.8,0.2c0.3,0.1,0.5,0.3,0.7,0.6c0.2,0.2,0.4,0.5,0.5,0.9
			c0,0.1,0.1,0.2,0,0.3c0,0.1-0.1,0.1-0.2,0.1c-1.5,0.5-2.3,0.7-3.8,1.1c0.1,0.3,0.2,0.6,0.3,0.8c0.2,0.2,0.3,0.4,0.5,0.5
			c0.2,0.1,0.4,0.2,0.7,0.2s0.5,0,0.8-0.1c0.3-0.1,0.5-0.2,0.6-0.3c0.2-0.1,0.3-0.2,0.4-0.3c0.1-0.1,0.2-0.2,0.3-0.3
			c0.1-0.1,0.1-0.1,0.2-0.2c0.1,0,0.2,0,0.2,0c0.2,0.1,0.2,0.1,0.4,0.2c-0.1,0.2-0.2,0.3-0.3,0.5c-0.2,0.2-0.3,0.3-0.5,0.4
			c-0.2,0.1-0.4,0.2-0.6,0.3c-0.2,0.1-0.4,0.2-0.6,0.2c-0.4,0.1-0.8,0.2-1.2,0.1c-0.4,0-0.7-0.1-1-0.3c-0.3-0.2-0.6-0.4-0.8-0.7
			c-0.2-0.3-0.4-0.7-0.5-1.1c-0.1-0.4-0.1-0.7,0-1s0.2-0.6,0.3-0.9c0.2-0.3,0.4-0.5,0.7-0.7C270.9,149.3,271.2,149.1,271.6,149z
			 M271.8,149.6c-0.5,0.1-0.8,0.3-1,0.7c-0.2,0.3-0.3,0.7-0.3,1.2c1.2-0.3,1.8-0.5,3.1-0.8c-0.1-0.2-0.2-0.4-0.3-0.5
			c-0.1-0.2-0.2-0.3-0.4-0.4c-0.2-0.1-0.3-0.1-0.5-0.2C272.2,149.6,272,149.6,271.8,149.6z"/>
	</g>
</g>
<rect x="-9.5" y="78.6" class="st6" width="98.9" height="43.9"/>
<text transform="matrix(1 0 0 1 2.041 87.9553)" class="st7 st8 st9">Idea about  </text>
<text transform="matrix(1 0 0 1 4.3032 103.676)" class="st7 st8 st9">a problem</text>
<rect x="428.1" y="78.6" class="st6" width="98.9" height="43.9"/>
<text transform="matrix(1 0 0 1 436.0967 87.9553)" class="st7 st8 st9">Solution to  </text>
<text transform="matrix(1 0 0 1 434.6006 103.676)" class="st7 st8 st9">the problem</text>
<polygon class="st10" points="415,92.7 337.2,170.5 337.2,14.8 "/>
<rect x="123.3" y="86.1" class="st6" width="335.7" height="64.7"/>
<g class="st11">
	<path class="st12" d="M132.3,90.9c0,0.7-0.1,1.3-0.3,1.8c-0.2,0.6-0.5,1-1,1.4c-0.4,0.4-0.9,0.7-1.5,1c-0.6,0.2-1.2,0.3-1.9,0.3
		h-3.5v-9.1h3.5c0.7,0,1.3,0.1,1.9,0.3c0.6,0.2,1.1,0.5,1.5,1c0.4,0.4,0.7,0.9,1,1.4C132.2,89.6,132.3,90.2,132.3,90.9z M130.2,90.9
		c0-0.5-0.1-0.9-0.2-1.2c-0.1-0.4-0.3-0.7-0.5-0.9c-0.2-0.3-0.5-0.4-0.8-0.6c-0.3-0.1-0.7-0.2-1.1-0.2h-1.4v5.8h1.4
		c0.4,0,0.8-0.1,1.1-0.2c0.3-0.1,0.6-0.3,0.8-0.6c0.2-0.3,0.4-0.6,0.5-0.9C130.1,91.7,130.2,91.3,130.2,90.9z"/>
	<path class="st12" d="M135.6,87.2c0,0.2,0,0.3-0.1,0.4c-0.1,0.1-0.2,0.3-0.3,0.4c-0.1,0.1-0.2,0.2-0.4,0.2
		c-0.1,0.1-0.3,0.1-0.5,0.1s-0.3,0-0.4-0.1c-0.1-0.1-0.3-0.1-0.4-0.2c-0.1-0.1-0.2-0.2-0.2-0.4c-0.1-0.1-0.1-0.3-0.1-0.4
		c0-0.2,0-0.3,0.1-0.4c0.1-0.1,0.1-0.3,0.2-0.4c0.1-0.1,0.2-0.2,0.4-0.2c0.1-0.1,0.3-0.1,0.4-0.1c0.2,0,0.3,0,0.5,0.1
		c0.2,0.1,0.3,0.1,0.4,0.2c0.1,0.1,0.2,0.2,0.3,0.4C135.5,86.9,135.6,87,135.6,87.2z M135.3,88.9v6.5h-1.9v-6.5H135.3z"/>
	<path class="st12" d="M140.8,90.4c0,0.1-0.1,0.1-0.2,0.2c-0.1,0-0.1,0-0.2,0c-0.1,0-0.2,0-0.3-0.1c-0.1,0-0.2-0.1-0.3-0.1
		c-0.1,0-0.2-0.1-0.4-0.1c-0.1,0-0.3-0.1-0.5-0.1c-0.2,0-0.4,0-0.6,0.1c-0.1,0.1-0.2,0.2-0.2,0.4c0,0.1,0,0.2,0.1,0.3
		c0.1,0.1,0.2,0.2,0.3,0.2c0.1,0.1,0.3,0.1,0.5,0.2c0.2,0.1,0.4,0.1,0.5,0.2c0.2,0.1,0.4,0.1,0.5,0.2c0.2,0.1,0.3,0.2,0.5,0.3
		c0.1,0.1,0.3,0.3,0.3,0.5c0.1,0.2,0.1,0.4,0.1,0.7c0,0.3-0.1,0.6-0.2,0.9c-0.1,0.3-0.3,0.5-0.5,0.7c-0.2,0.2-0.5,0.3-0.9,0.5
		s-0.7,0.2-1.2,0.2c-0.2,0-0.4,0-0.7-0.1c-0.2,0-0.4-0.1-0.6-0.2c-0.2-0.1-0.4-0.2-0.6-0.3s-0.3-0.2-0.5-0.3l0.5-0.7
		c0.1-0.1,0.1-0.2,0.2-0.2c0.1,0,0.2-0.1,0.3-0.1c0.1,0,0.2,0,0.3,0.1c0.1,0,0.2,0.1,0.3,0.2c0.1,0.1,0.2,0.1,0.4,0.2
		s0.3,0.1,0.5,0.1c0.2,0,0.3,0,0.4,0c0.1,0,0.2-0.1,0.2-0.1s0.1-0.1,0.1-0.2c0-0.1,0-0.1,0-0.2c0-0.1,0-0.2-0.1-0.3
		c-0.1-0.1-0.2-0.2-0.3-0.2c-0.1-0.1-0.3-0.1-0.5-0.2c-0.2,0-0.4-0.1-0.6-0.2c-0.2-0.1-0.4-0.2-0.6-0.2c-0.2-0.1-0.3-0.2-0.5-0.4
		c-0.1-0.1-0.3-0.3-0.3-0.5c-0.1-0.2-0.1-0.5-0.1-0.8c0-0.3,0.1-0.5,0.2-0.8c0.1-0.2,0.3-0.5,0.5-0.6s0.5-0.3,0.8-0.4
		c0.3-0.1,0.7-0.2,1.1-0.2c0.2,0,0.5,0,0.7,0.1c0.2,0,0.4,0.1,0.6,0.2c0.2,0.1,0.4,0.2,0.5,0.3c0.2,0.1,0.3,0.2,0.4,0.3L140.8,90.4z
		"/>
	<path class="st12" d="M147,90.5c-0.1,0.1-0.1,0.1-0.2,0.2c-0.1,0-0.1,0.1-0.2,0.1c-0.1,0-0.2,0-0.3-0.1c-0.1,0-0.2-0.1-0.3-0.2
		c-0.1-0.1-0.2-0.1-0.3-0.2c-0.1,0-0.3-0.1-0.5-0.1c-0.2,0-0.4,0-0.6,0.1c-0.2,0.1-0.3,0.2-0.4,0.4c-0.1,0.2-0.2,0.4-0.2,0.6
		c-0.1,0.2-0.1,0.5-0.1,0.8c0,0.6,0.1,1.1,0.4,1.4c0.2,0.3,0.6,0.5,1,0.5c0.2,0,0.4,0,0.5-0.1c0.1-0.1,0.2-0.1,0.3-0.2
		c0.1-0.1,0.2-0.1,0.3-0.2c0.1-0.1,0.2-0.1,0.3-0.1c0.2,0,0.3,0.1,0.3,0.2l0.6,0.7c-0.2,0.2-0.4,0.4-0.6,0.6
		c-0.2,0.1-0.4,0.3-0.7,0.3c-0.2,0.1-0.5,0.1-0.7,0.2c-0.2,0-0.5,0-0.7,0c-0.4,0-0.8-0.1-1.1-0.2c-0.4-0.2-0.7-0.4-1-0.6
		c-0.3-0.3-0.5-0.6-0.6-1.1c-0.2-0.4-0.2-0.9-0.2-1.4c0-0.5,0.1-0.9,0.2-1.3c0.1-0.4,0.3-0.8,0.6-1.1c0.3-0.3,0.6-0.5,1-0.7
		c0.4-0.2,0.9-0.3,1.4-0.3c0.5,0,1,0.1,1.3,0.2c0.4,0.2,0.7,0.4,1,0.7L147,90.5z"/>
	<path class="st12" d="M151.3,88.8c0.5,0,0.9,0.1,1.3,0.2s0.8,0.4,1,0.7c0.3,0.3,0.5,0.6,0.7,1s0.2,0.9,0.2,1.4c0,0.5-0.1,1-0.2,1.4
		s-0.4,0.8-0.7,1.1c-0.3,0.3-0.6,0.5-1,0.7c-0.4,0.2-0.8,0.2-1.3,0.2c-0.5,0-0.9-0.1-1.3-0.2s-0.8-0.4-1-0.7
		c-0.3-0.3-0.5-0.6-0.7-1.1c-0.2-0.4-0.2-0.9-0.2-1.4c0-0.5,0.1-1,0.2-1.4c0.2-0.4,0.4-0.8,0.7-1c0.3-0.3,0.6-0.5,1-0.7
		C150.4,88.9,150.8,88.8,151.3,88.8z M151.3,94.1c0.4,0,0.8-0.2,1-0.5c0.2-0.3,0.3-0.8,0.3-1.4c0-0.6-0.1-1.1-0.3-1.4
		c-0.2-0.3-0.5-0.5-1-0.5c-0.5,0-0.8,0.2-1,0.5c-0.2,0.3-0.3,0.8-0.3,1.4c0,0.6,0.1,1.1,0.3,1.4C150.5,93.9,150.8,94.1,151.3,94.1z"
		/>
	<path class="st12" d="M159,95.4h-1.8l-2.5-6.5h1.6c0.1,0,0.3,0,0.3,0.1c0.1,0.1,0.2,0.1,0.2,0.2l0.9,2.9c0.1,0.2,0.1,0.5,0.2,0.7
		c0.1,0.2,0.1,0.5,0.2,0.7c0-0.2,0.1-0.5,0.2-0.7c0.1-0.2,0.1-0.5,0.2-0.7l0.9-2.9c0-0.1,0.1-0.2,0.2-0.2c0.1-0.1,0.2-0.1,0.3-0.1
		h1.5L159,95.4z"/>
	<path class="st12" d="M164.8,88.8c0.4,0,0.8,0.1,1.2,0.2c0.4,0.1,0.7,0.3,0.9,0.6c0.3,0.3,0.5,0.6,0.6,0.9c0.1,0.4,0.2,0.8,0.2,1.3
		c0,0.1,0,0.3,0,0.4c0,0.1,0,0.2-0.1,0.2c0,0.1-0.1,0.1-0.1,0.1c-0.1,0-0.1,0-0.2,0h-3.7c0.1,0.5,0.2,0.9,0.5,1.2
		c0.3,0.2,0.6,0.4,1,0.4c0.2,0,0.4,0,0.6-0.1c0.2-0.1,0.3-0.1,0.4-0.2c0.1-0.1,0.2-0.1,0.3-0.2c0.1-0.1,0.2-0.1,0.3-0.1
		c0.2,0,0.3,0.1,0.3,0.2l0.6,0.7c-0.2,0.2-0.4,0.4-0.6,0.6c-0.2,0.1-0.5,0.3-0.7,0.3c-0.2,0.1-0.5,0.1-0.7,0.2s-0.5,0-0.7,0
		c-0.5,0-0.9-0.1-1.3-0.2c-0.4-0.2-0.7-0.4-1-0.7c-0.3-0.3-0.5-0.6-0.7-1.1c-0.2-0.4-0.3-0.9-0.3-1.5c0-0.4,0.1-0.8,0.2-1.2
		c0.2-0.4,0.4-0.7,0.6-1c0.3-0.3,0.6-0.5,1-0.7C163.9,88.9,164.3,88.8,164.8,88.8z M164.8,90.2c-0.4,0-0.7,0.1-0.9,0.3
		s-0.3,0.5-0.4,0.9h2.4c0-0.2,0-0.3-0.1-0.5c0-0.1-0.1-0.3-0.2-0.4c-0.1-0.1-0.2-0.2-0.3-0.3C165.2,90.2,165.1,90.2,164.8,90.2z"/>
	<path class="st12" d="M168.8,95.4v-6.5h1.1c0.1,0,0.2,0,0.2,0c0.1,0,0.1,0,0.2,0.1c0,0,0.1,0.1,0.1,0.1c0,0.1,0,0.1,0.1,0.2
		l0.1,0.6c0.2-0.4,0.5-0.6,0.8-0.9c0.3-0.2,0.6-0.3,1-0.3c0.3,0,0.5,0.1,0.7,0.2l-0.2,1.4c0,0.1,0,0.2-0.1,0.2c0,0-0.1,0.1-0.2,0.1
		c-0.1,0-0.2,0-0.3,0c-0.1,0-0.2,0-0.4,0c-0.5,0-0.9,0.3-1.2,0.8v4L168.8,95.4L168.8,95.4z"/>
	<path class="st12" d="M206.3,90.9c0,0.7-0.1,1.3-0.3,1.8c-0.2,0.6-0.5,1-1,1.4s-0.9,0.7-1.5,1c-0.6,0.2-1.2,0.3-1.9,0.3H198v-9.1
		h3.5c0.7,0,1.3,0.1,1.9,0.3c0.6,0.2,1.1,0.5,1.5,1c0.4,0.4,0.7,0.9,1,1.4C206.1,89.6,206.3,90.2,206.3,90.9z M204.1,90.9
		c0-0.5-0.1-0.9-0.2-1.2c-0.1-0.4-0.3-0.7-0.5-0.9c-0.2-0.3-0.5-0.4-0.8-0.6c-0.3-0.1-0.7-0.2-1.1-0.2h-1.4v5.8h1.4
		c0.4,0,0.8-0.1,1.1-0.2c0.3-0.1,0.6-0.3,0.8-0.6c0.2-0.3,0.4-0.6,0.5-0.9C204,91.7,204.1,91.3,204.1,90.9z"/>
	<path class="st12" d="M210,88.8c0.4,0,0.8,0.1,1.2,0.2c0.4,0.1,0.7,0.3,0.9,0.6c0.3,0.3,0.5,0.6,0.6,0.9c0.1,0.4,0.2,0.8,0.2,1.3
		c0,0.1,0,0.3,0,0.4c0,0.1,0,0.2-0.1,0.2c0,0.1-0.1,0.1-0.1,0.1c-0.1,0-0.1,0-0.2,0h-3.7c0.1,0.5,0.2,0.9,0.5,1.2
		c0.3,0.2,0.6,0.4,1,0.4c0.2,0,0.4,0,0.6-0.1c0.2-0.1,0.3-0.1,0.4-0.2c0.1-0.1,0.2-0.1,0.3-0.2c0.1-0.1,0.2-0.1,0.3-0.1
		c0.2,0,0.3,0.1,0.3,0.2l0.6,0.7c-0.2,0.2-0.4,0.4-0.6,0.6c-0.2,0.1-0.5,0.3-0.7,0.3s-0.5,0.1-0.7,0.2s-0.5,0-0.7,0
		c-0.5,0-0.9-0.1-1.3-0.2c-0.4-0.2-0.7-0.4-1-0.7c-0.3-0.3-0.5-0.6-0.7-1.1c-0.2-0.4-0.3-0.9-0.3-1.5c0-0.4,0.1-0.8,0.2-1.2
		c0.2-0.4,0.4-0.7,0.6-1c0.3-0.3,0.6-0.5,1-0.7C209.1,88.9,209.5,88.8,210,88.8z M210.1,90.2c-0.4,0-0.7,0.1-0.9,0.3
		s-0.3,0.5-0.4,0.9h2.4c0-0.2,0-0.3-0.1-0.5c0-0.1-0.1-0.3-0.2-0.4c-0.1-0.1-0.2-0.2-0.3-0.3C210.5,90.2,210.3,90.2,210.1,90.2z"/>
	<path class="st12" d="M214.3,95.4v-5.1l-0.4-0.1c-0.2,0-0.3-0.1-0.3-0.2c-0.1-0.1-0.1-0.2-0.1-0.3v-0.8h0.9v-0.1
		c0-0.4,0.1-0.8,0.2-1.1c0.1-0.3,0.3-0.6,0.6-0.9c0.3-0.3,0.6-0.5,1.1-0.6c0.4-0.1,1-0.2,1.6-0.2c0.2,0,0.4,0,0.6,0
		c0.2,0,0.4,0,0.5,0.1l-0.1,1c0,0.1-0.1,0.2-0.2,0.2c-0.1,0-0.2,0-0.3,0c-0.4,0-0.8,0-1.1,0.1c-0.3,0.1-0.5,0.2-0.7,0.3
		c-0.2,0.1-0.3,0.3-0.3,0.5c-0.1,0.2-0.1,0.4-0.1,0.7v0h4.1v6.5h-1.9v-5.1h-2.1v5.1C216.2,95.4,214.3,95.4,214.3,95.4z"/>
	<path class="st12" d="M221.9,95.4v-6.5h1.2c0.1,0,0.2,0,0.3,0.1c0.1,0.1,0.1,0.1,0.2,0.2l0.1,0.4c0.1-0.1,0.3-0.2,0.4-0.3
		c0.1-0.1,0.3-0.2,0.4-0.3c0.2-0.1,0.3-0.1,0.5-0.2s0.4-0.1,0.6-0.1c0.3,0,0.7,0.1,0.9,0.2c0.3,0.1,0.5,0.3,0.7,0.5
		c0.2,0.2,0.3,0.5,0.4,0.8c0.1,0.3,0.1,0.6,0.1,1v4.1h-1.9v-4.1c0-0.3-0.1-0.6-0.2-0.7c-0.2-0.2-0.4-0.3-0.6-0.3
		c-0.2,0-0.4,0-0.6,0.1c-0.2,0.1-0.4,0.2-0.5,0.4v4.6H221.9z"/>
	<path class="st12" d="M231.9,88.8c0.4,0,0.8,0.1,1.2,0.2c0.4,0.1,0.7,0.3,0.9,0.6c0.3,0.3,0.5,0.6,0.6,0.9c0.1,0.4,0.2,0.8,0.2,1.3
		c0,0.1,0,0.3,0,0.4c0,0.1,0,0.2-0.1,0.2c0,0.1-0.1,0.1-0.1,0.1c-0.1,0-0.1,0-0.2,0h-3.7c0.1,0.5,0.2,0.9,0.5,1.2
		c0.3,0.2,0.6,0.4,1,0.4c0.2,0,0.4,0,0.6-0.1c0.2-0.1,0.3-0.1,0.4-0.2c0.1-0.1,0.2-0.1,0.3-0.2c0.1-0.1,0.2-0.1,0.3-0.1
		c0.2,0,0.3,0.1,0.3,0.2l0.6,0.7c-0.2,0.2-0.4,0.4-0.6,0.6c-0.2,0.1-0.5,0.3-0.7,0.3s-0.5,0.1-0.7,0.2c-0.2,0-0.5,0-0.7,0
		c-0.5,0-0.9-0.1-1.3-0.2c-0.4-0.2-0.7-0.4-1-0.7c-0.3-0.3-0.5-0.6-0.7-1.1c-0.2-0.4-0.3-0.9-0.3-1.5c0-0.4,0.1-0.8,0.2-1.2
		c0.2-0.4,0.4-0.7,0.6-1c0.3-0.3,0.6-0.5,1-0.7C230.9,88.9,231.4,88.8,231.9,88.8z M231.9,90.2c-0.4,0-0.7,0.1-0.9,0.3
		s-0.3,0.5-0.4,0.9h2.4c0-0.2,0-0.3-0.1-0.5c0-0.1-0.1-0.3-0.2-0.4c-0.1-0.1-0.2-0.2-0.3-0.3C232.3,90.2,232.1,90.2,231.9,90.2z"/>
	<path class="st12" d="M287.4,90.9c0,0.7-0.1,1.3-0.3,1.8c-0.2,0.6-0.5,1-1,1.4c-0.4,0.4-0.9,0.7-1.5,1c-0.6,0.2-1.2,0.3-1.9,0.3
		h-3.5v-9.1h3.5c0.7,0,1.3,0.1,1.9,0.3c0.6,0.2,1.1,0.5,1.5,1c0.4,0.4,0.7,0.9,1,1.4C287.3,89.6,287.4,90.2,287.4,90.9z M285.3,90.9
		c0-0.5-0.1-0.9-0.2-1.2c-0.1-0.4-0.3-0.7-0.5-0.9c-0.2-0.3-0.5-0.4-0.8-0.6c-0.3-0.1-0.7-0.2-1.1-0.2h-1.4v5.8h1.4
		c0.4,0,0.8-0.1,1.1-0.2c0.3-0.1,0.6-0.3,0.8-0.6c0.2-0.3,0.4-0.6,0.5-0.9C285.2,91.7,285.3,91.3,285.3,90.9z"/>
	<path class="st12" d="M291.2,88.8c0.4,0,0.8,0.1,1.2,0.2c0.4,0.1,0.7,0.3,0.9,0.6c0.3,0.3,0.5,0.6,0.6,0.9c0.1,0.4,0.2,0.8,0.2,1.3
		c0,0.1,0,0.3,0,0.4c0,0.1,0,0.2-0.1,0.2c0,0.1-0.1,0.1-0.1,0.1s-0.1,0-0.2,0H290c0.1,0.5,0.2,0.9,0.5,1.2c0.3,0.2,0.6,0.4,1,0.4
		c0.2,0,0.4,0,0.6-0.1c0.2-0.1,0.3-0.1,0.4-0.2c0.1-0.1,0.2-0.1,0.3-0.2c0.1-0.1,0.2-0.1,0.3-0.1c0.2,0,0.3,0.1,0.3,0.2l0.6,0.7
		c-0.2,0.2-0.4,0.4-0.6,0.6c-0.2,0.1-0.5,0.3-0.7,0.3s-0.5,0.1-0.7,0.2c-0.2,0-0.5,0-0.7,0c-0.5,0-0.9-0.1-1.3-0.2
		c-0.4-0.2-0.7-0.4-1-0.7c-0.3-0.3-0.5-0.6-0.7-1.1c-0.2-0.4-0.3-0.9-0.3-1.5c0-0.4,0.1-0.8,0.2-1.2c0.2-0.4,0.4-0.7,0.6-1
		c0.3-0.3,0.6-0.5,1-0.7C290.3,88.9,290.7,88.8,291.2,88.8z M291.2,90.2c-0.4,0-0.7,0.1-0.9,0.3c-0.2,0.2-0.3,0.5-0.4,0.9h2.4
		c0-0.2,0-0.3-0.1-0.5c0-0.1-0.1-0.3-0.2-0.4c-0.1-0.1-0.2-0.2-0.3-0.3C291.6,90.2,291.4,90.2,291.2,90.2z"/>
	<path class="st12" d="M298.5,95.4h-1.8l-2.5-6.5h1.6c0.1,0,0.3,0,0.3,0.1c0.1,0.1,0.2,0.1,0.2,0.2l0.9,2.9c0.1,0.2,0.1,0.5,0.2,0.7
		c0.1,0.2,0.1,0.5,0.2,0.7c0-0.2,0.1-0.5,0.2-0.7c0.1-0.2,0.1-0.5,0.2-0.7l0.9-2.9c0-0.1,0.1-0.2,0.2-0.2c0.1-0.1,0.2-0.1,0.3-0.1
		h1.5L298.5,95.4z"/>
	<path class="st12" d="M304.4,88.8c0.4,0,0.8,0.1,1.2,0.2c0.4,0.1,0.7,0.3,0.9,0.6c0.3,0.3,0.5,0.6,0.6,0.9c0.1,0.4,0.2,0.8,0.2,1.3
		c0,0.1,0,0.3,0,0.4c0,0.1,0,0.2-0.1,0.2c0,0.1-0.1,0.1-0.1,0.1c-0.1,0-0.1,0-0.2,0h-3.7c0.1,0.5,0.2,0.9,0.5,1.2
		c0.3,0.2,0.6,0.4,1,0.4c0.2,0,0.4,0,0.6-0.1c0.2-0.1,0.3-0.1,0.4-0.2c0.1-0.1,0.2-0.1,0.3-0.2c0.1-0.1,0.2-0.1,0.3-0.1
		c0.2,0,0.3,0.1,0.3,0.2l0.6,0.7c-0.2,0.2-0.4,0.4-0.6,0.6c-0.2,0.1-0.5,0.3-0.7,0.3c-0.2,0.1-0.5,0.1-0.7,0.2s-0.5,0-0.7,0
		c-0.5,0-0.9-0.1-1.3-0.2s-0.7-0.4-1-0.7c-0.3-0.3-0.5-0.6-0.7-1.1c-0.2-0.4-0.3-0.9-0.3-1.5c0-0.4,0.1-0.8,0.2-1.2
		c0.2-0.4,0.4-0.7,0.6-1c0.3-0.3,0.6-0.5,1-0.7C303.4,88.9,303.9,88.8,304.4,88.8z M304.4,90.2c-0.4,0-0.7,0.1-0.9,0.3
		s-0.3,0.5-0.4,0.9h2.4c0-0.2,0-0.3-0.1-0.5c0-0.1-0.1-0.3-0.2-0.4c-0.1-0.1-0.2-0.2-0.3-0.3C304.8,90.2,304.6,90.2,304.4,90.2z"/>
	<path class="st12" d="M310.4,86.1v9.3h-1.9v-9.3H310.4z"/>
	<path class="st12" d="M314.8,88.8c0.5,0,0.9,0.1,1.3,0.2s0.7,0.4,1,0.7s0.5,0.6,0.7,1c0.2,0.4,0.2,0.9,0.2,1.4c0,0.5-0.1,1-0.2,1.4
		c-0.2,0.4-0.4,0.8-0.7,1.1s-0.6,0.5-1,0.7c-0.4,0.2-0.8,0.2-1.3,0.2c-0.5,0-0.9-0.1-1.3-0.2s-0.8-0.4-1-0.7s-0.5-0.6-0.7-1.1
		c-0.2-0.4-0.2-0.9-0.2-1.4c0-0.5,0.1-1,0.2-1.4c0.2-0.4,0.4-0.8,0.7-1s0.6-0.5,1-0.7C313.9,88.9,314.3,88.8,314.8,88.8z
		 M314.8,94.1c0.4,0,0.8-0.2,1-0.5c0.2-0.3,0.3-0.8,0.3-1.4c0-0.6-0.1-1.1-0.3-1.4c-0.2-0.3-0.5-0.5-1-0.5c-0.5,0-0.8,0.2-1,0.5
		c-0.2,0.3-0.3,0.8-0.3,1.4c0,0.6,0.1,1.1,0.3,1.4C314,93.9,314.4,94.1,314.8,94.1z"/>
	<path class="st12" d="M319.2,97.5v-8.5h1.2c0.1,0,0.2,0,0.3,0.1c0.1,0.1,0.1,0.1,0.2,0.2l0.1,0.5c0.1-0.1,0.3-0.3,0.4-0.4
		c0.1-0.1,0.3-0.2,0.5-0.3c0.2-0.1,0.3-0.1,0.5-0.2c0.2,0,0.4-0.1,0.6-0.1c0.3,0,0.6,0.1,0.9,0.2c0.3,0.2,0.5,0.4,0.7,0.6
		c0.2,0.3,0.4,0.6,0.5,1c0.1,0.4,0.2,0.9,0.2,1.4c0,0.5-0.1,0.9-0.2,1.3c-0.1,0.4-0.3,0.8-0.6,1.1c-0.2,0.3-0.5,0.5-0.9,0.7
		c-0.3,0.2-0.7,0.3-1.1,0.3c-0.3,0-0.6,0-0.8-0.1c-0.2-0.1-0.4-0.2-0.6-0.4v2.5C321.1,97.5,319.2,97.5,319.2,97.5z M322.3,90.3
		c-0.1,0-0.3,0-0.4,0c-0.1,0-0.2,0.1-0.3,0.1c-0.1,0-0.2,0.1-0.3,0.2c-0.1,0.1-0.2,0.2-0.2,0.3v2.7c0.1,0.2,0.3,0.3,0.5,0.3
		c0.2,0.1,0.3,0.1,0.5,0.1c0.2,0,0.3,0,0.5-0.1s0.3-0.2,0.4-0.3c0.1-0.2,0.2-0.4,0.3-0.6c0.1-0.2,0.1-0.6,0.1-0.9
		c0-0.3,0-0.6-0.1-0.9c0-0.2-0.1-0.4-0.2-0.6c-0.1-0.1-0.2-0.2-0.3-0.3C322.6,90.3,322.5,90.3,322.3,90.3z"/>
	<path class="st12" d="M361.1,90.9c0,0.7-0.1,1.3-0.3,1.8c-0.2,0.6-0.5,1-1,1.4c-0.4,0.4-0.9,0.7-1.5,1c-0.6,0.2-1.2,0.3-1.9,0.3
		h-3.5v-9.1h3.5c0.7,0,1.3,0.1,1.9,0.3c0.6,0.2,1.1,0.5,1.5,1c0.4,0.4,0.7,0.9,1,1.4C361,89.6,361.1,90.2,361.1,90.9z M358.9,90.9
		c0-0.5-0.1-0.9-0.2-1.2c-0.1-0.4-0.3-0.7-0.5-0.9c-0.2-0.3-0.5-0.4-0.8-0.6c-0.3-0.1-0.7-0.2-1.1-0.2H355v5.8h1.4
		c0.4,0,0.8-0.1,1.1-0.2c0.3-0.1,0.6-0.3,0.8-0.6c0.2-0.3,0.4-0.6,0.5-0.9C358.9,91.7,358.9,91.3,358.9,90.9z"/>
	<path class="st12" d="M364.8,88.8c0.4,0,0.8,0.1,1.2,0.2c0.4,0.1,0.7,0.3,0.9,0.6c0.3,0.3,0.5,0.6,0.6,0.9c0.1,0.4,0.2,0.8,0.2,1.3
		c0,0.1,0,0.3,0,0.4c0,0.1,0,0.2-0.1,0.2c0,0.1-0.1,0.1-0.1,0.1s-0.1,0-0.2,0h-3.7c0.1,0.5,0.2,0.9,0.5,1.2c0.3,0.2,0.6,0.4,1,0.4
		c0.2,0,0.4,0,0.6-0.1c0.2-0.1,0.3-0.1,0.4-0.2c0.1-0.1,0.2-0.1,0.3-0.2c0.1-0.1,0.2-0.1,0.3-0.1c0.2,0,0.3,0.1,0.3,0.2l0.6,0.7
		c-0.2,0.2-0.4,0.4-0.6,0.6c-0.2,0.1-0.5,0.3-0.7,0.3s-0.5,0.1-0.7,0.2s-0.5,0-0.7,0c-0.5,0-0.9-0.1-1.3-0.2s-0.7-0.4-1-0.7
		c-0.3-0.3-0.5-0.6-0.7-1.1c-0.2-0.4-0.3-0.9-0.3-1.5c0-0.4,0.1-0.8,0.2-1.2c0.2-0.4,0.4-0.7,0.6-1c0.3-0.3,0.6-0.5,1-0.7
		C363.9,88.9,364.4,88.8,364.8,88.8z M364.9,90.2c-0.4,0-0.7,0.1-0.9,0.3c-0.2,0.2-0.3,0.5-0.4,0.9h2.4c0-0.2,0-0.3-0.1-0.5
		c0-0.1-0.1-0.3-0.2-0.4c-0.1-0.1-0.2-0.2-0.3-0.3C365.3,90.2,365.1,90.2,364.9,90.2z"/>
	<path class="st12" d="M370.9,86.1v9.3h-1.9v-9.3H370.9z"/>
	<path class="st12" d="M374.6,87.2c0,0.2,0,0.3-0.1,0.4c-0.1,0.1-0.2,0.3-0.3,0.4c-0.1,0.1-0.2,0.2-0.4,0.2
		c-0.1,0.1-0.3,0.1-0.5,0.1c-0.2,0-0.3,0-0.4-0.1c-0.1-0.1-0.3-0.1-0.4-0.2c-0.1-0.1-0.2-0.2-0.2-0.4c-0.1-0.1-0.1-0.3-0.1-0.4
		c0-0.2,0-0.3,0.1-0.4c0.1-0.1,0.1-0.3,0.2-0.4c0.1-0.1,0.2-0.2,0.4-0.2s0.3-0.1,0.4-0.1c0.2,0,0.3,0,0.5,0.1
		c0.1,0.1,0.3,0.1,0.4,0.2c0.1,0.1,0.2,0.2,0.3,0.4C374.6,86.9,374.6,87,374.6,87.2z M374.4,88.9v6.5h-1.9v-6.5H374.4z"/>
	<path class="st12" d="M379.5,95.4h-1.8l-2.5-6.5h1.6c0.1,0,0.3,0,0.3,0.1c0.1,0.1,0.2,0.1,0.2,0.2l0.9,2.9c0.1,0.2,0.1,0.5,0.2,0.7
		c0.1,0.2,0.1,0.5,0.2,0.7c0-0.2,0.1-0.5,0.2-0.7c0.1-0.2,0.1-0.5,0.2-0.7l0.9-2.9c0-0.1,0.1-0.2,0.2-0.2c0.1-0.1,0.2-0.1,0.3-0.1
		h1.5L379.5,95.4z"/>
	<path class="st12" d="M385.4,88.8c0.4,0,0.8,0.1,1.2,0.2c0.4,0.1,0.7,0.3,0.9,0.6c0.3,0.3,0.5,0.6,0.6,0.9c0.1,0.4,0.2,0.8,0.2,1.3
		c0,0.1,0,0.3,0,0.4c0,0.1,0,0.2-0.1,0.2c0,0.1-0.1,0.1-0.1,0.1c-0.1,0-0.1,0-0.2,0h-3.7c0.1,0.5,0.2,0.9,0.5,1.2
		c0.3,0.2,0.6,0.4,1,0.4c0.2,0,0.4,0,0.6-0.1c0.2-0.1,0.3-0.1,0.4-0.2c0.1-0.1,0.2-0.1,0.3-0.2c0.1-0.1,0.2-0.1,0.3-0.1
		c0.2,0,0.3,0.1,0.3,0.2l0.6,0.7c-0.2,0.2-0.4,0.4-0.6,0.6c-0.2,0.1-0.5,0.3-0.7,0.3c-0.2,0.1-0.5,0.1-0.7,0.2s-0.5,0-0.7,0
		c-0.5,0-0.9-0.1-1.3-0.2s-0.7-0.4-1-0.7c-0.3-0.3-0.5-0.6-0.7-1.1c-0.2-0.4-0.3-0.9-0.3-1.5c0-0.4,0.1-0.8,0.2-1.2
		c0.2-0.4,0.4-0.7,0.6-1c0.3-0.3,0.6-0.5,1-0.7C384.4,88.9,384.9,88.8,385.4,88.8z M385.4,90.2c-0.4,0-0.7,0.1-0.9,0.3
		c-0.2,0.2-0.3,0.5-0.4,0.9h2.4c0-0.2,0-0.3-0.1-0.5c0-0.1-0.1-0.3-0.2-0.4c-0.1-0.1-0.2-0.2-0.3-0.3
		C385.8,90.2,385.6,90.2,385.4,90.2z"/>
	<path class="st12" d="M389.4,95.4v-6.5h1.1c0.1,0,0.2,0,0.2,0c0.1,0,0.1,0,0.2,0.1c0,0,0.1,0.1,0.1,0.1c0,0.1,0,0.1,0.1,0.2
		l0.1,0.6c0.2-0.4,0.5-0.6,0.8-0.9c0.3-0.2,0.6-0.3,1-0.3c0.3,0,0.5,0.1,0.7,0.2l-0.2,1.4c0,0.1,0,0.2-0.1,0.2c0,0-0.1,0.1-0.2,0.1
		c-0.1,0-0.2,0-0.3,0c-0.1,0-0.2,0-0.4,0c-0.5,0-0.9,0.3-1.2,0.8v4L389.4,95.4L389.4,95.4z"/>
</g>
</svg>
