<?xml version="1.0" encoding="utf-8"?>
<!-- Generator: Adobe Illustrator 25.2.0, SVG Export Plug-In . SVG Version: 6.00 Build 0)  -->
<svg version="1.1" id="Layer_1" xmlns="http://www.w3.org/2000/svg" xmlns:xlink="http://www.w3.org/1999/xlink" x="0px" y="0px"
	 viewBox="0 0 505 185" style="enable-background:new 0 0 505 185;" xml:space="preserve">
<style type="text/css">
	.st0{fill:#EEA8BE;}
	.st1{fill:#D83662;}
	.st2{fill:#EED7BC;}
	.st3{fill:#42454A;stroke:#42454A;stroke-miterlimit:10;}
	.st4{fill:none;stroke:#42454A;stroke-width:3;stroke-linecap:round;}
	.st5{fill:#42454A;}
	.st6{fill:none;}
	.st7{fill:#43454B;}
	.st8{font-family:'Lato-Black';}
	.st9{font-size:10.7429px;}
	.st10{fill:#EAB570;}
	.st11{enable-background:new    ;}
	.st12{fill:#FFFFFF;}
</style>
<rect x="137.57" y="42.15" transform="matrix(0.7071 -0.7071 0.7071 0.7071 -9.162 157.0578)" class="st0" width="94.87" height="94.87"/>
<polygon class="st1" points="252.09,89.58 185.01,156.67 185.01,22.5 "/>
<rect x="271.57" y="42.15" transform="matrix(0.7071 -0.7071 0.7071 0.7071 30.0879 251.8066)" class="st2" width="94.87" height="94.87"/>
<g>
	<path class="st3" d="M214.59,39.54c9.9-8.28,22.63-13.27,36.51-13.27c14.73,0,28.16,5.62,38.29,14.82l0.84-0.84
		c-10.33-9.4-24.06-15.14-39.13-15.14c-14.22,0-27.25,5.11-37.35,13.59L214.59,39.54z"/>
	<line class="st4" x1="279.34" y1="40.51" x2="290.22" y2="40.51"/>
	<line class="st4" x1="290.22" y1="40.51" x2="285.59" y2="30.66"/>
</g>
<g>
	<path class="st3" d="M286.63,137.34c-9.39,7.86-21.48,12.6-34.65,12.6c-13.98,0-26.73-5.33-36.34-14.06l-0.8,0.8
		c9.8,8.92,22.83,14.37,37.13,14.37c13.5,0,25.86-4.85,35.45-12.9L286.63,137.34z"/>
	<line class="st4" x1="225.17" y1="136.42" x2="214.84" y2="136.42"/>
	<line class="st4" x1="214.84" y1="136.42" x2="219.24" y2="145.77"/>
</g>
<g>
	<g>
		<g>
			<path class="st5" d="M239.48,37.6c-0.36,0.11-0.54,0.16-0.89,0.28c-0.83-2.56-1.25-3.84-2.08-6.4c0.41-0.13,0.62-0.2,1.03-0.32
				C238.32,33.73,238.71,35.02,239.48,37.6z"/>
			<path class="st5" d="M242.58,36.87c-0.37,0.08-0.68,0.05-0.93-0.11c-0.25-0.15-0.43-0.42-0.52-0.8
				c-0.28-1.13-0.43-1.69-0.71-2.82c-0.25,0.06-0.37,0.09-0.62,0.16c-0.05,0.01-0.1,0.01-0.15-0.01c-0.04-0.02-0.08-0.06-0.09-0.12
				c-0.03-0.13-0.05-0.19-0.09-0.32c0.33-0.13,0.5-0.19,0.83-0.32c-0.06-0.59-0.09-0.89-0.14-1.48c0-0.05,0.01-0.09,0.04-0.13
				s0.08-0.06,0.14-0.08c0.19-0.05,0.29-0.07,0.48-0.11c0.15,0.64,0.22,0.96,0.37,1.6c0.6-0.14,0.9-0.2,1.5-0.32
				c0.05,0.24,0.07,0.36,0.12,0.59c-0.6,0.12-0.89,0.18-1.49,0.32c0.26,1.11,0.39,1.67,0.64,2.78c0.05,0.2,0.13,0.33,0.25,0.4
				s0.26,0.09,0.41,0.06c0.09-0.02,0.16-0.05,0.22-0.08c0.06-0.04,0.11-0.07,0.15-0.11s0.08-0.07,0.11-0.1s0.06-0.05,0.08-0.05
				c0.04-0.01,0.09,0.01,0.14,0.05c0.13,0.14,0.2,0.21,0.33,0.34c-0.12,0.16-0.27,0.3-0.46,0.42C243,36.74,242.8,36.82,242.58,36.87
				z"/>
			<path class="st5" d="M245.91,31.31c0.32-0.04,0.62-0.03,0.9,0.04c0.28,0.07,0.53,0.18,0.74,0.34s0.38,0.37,0.51,0.62
				c0.13,0.25,0.21,0.55,0.23,0.89c0.01,0.13,0,0.22-0.02,0.27c-0.03,0.05-0.08,0.07-0.17,0.08c-1.35,0.12-2.03,0.2-3.37,0.41
				c0.05,0.3,0.14,0.55,0.25,0.75c0.11,0.21,0.25,0.37,0.41,0.5s0.33,0.21,0.53,0.26s0.41,0.06,0.64,0.03
				c0.21-0.03,0.4-0.07,0.55-0.14c0.15-0.07,0.28-0.13,0.39-0.2s0.2-0.13,0.27-0.18c0.07-0.06,0.14-0.09,0.19-0.09
				c0.07-0.01,0.13,0.01,0.17,0.06c0.11,0.11,0.16,0.17,0.27,0.28c-0.1,0.13-0.21,0.25-0.35,0.36s-0.29,0.2-0.45,0.27
				c-0.16,0.08-0.33,0.14-0.5,0.19s-0.35,0.09-0.52,0.11c-0.33,0.04-0.64,0.03-0.94-0.04s-0.56-0.19-0.8-0.37s-0.45-0.41-0.62-0.7
				s-0.3-0.64-0.37-1.04c-0.06-0.33-0.06-0.64,0-0.94s0.18-0.58,0.35-0.82c0.18-0.24,0.41-0.45,0.7-0.61
				C245.19,31.46,245.52,31.36,245.91,31.31z M246.01,31.92c-0.45,0.06-0.78,0.22-1,0.49s-0.32,0.61-0.32,1.03
				c1.11-0.18,1.67-0.25,2.78-0.36c-0.02-0.19-0.07-0.37-0.14-0.52c-0.07-0.15-0.17-0.28-0.3-0.39c-0.13-0.1-0.28-0.18-0.45-0.22
				C246.41,31.9,246.22,31.89,246.01,31.92z"/>
			<path class="st5" d="M249.59,35.82c-0.11-1.9-0.16-2.85-0.26-4.75c0.22-0.01,0.32-0.02,0.54-0.03c0.1,0,0.17,0.01,0.21,0.04
				c0.04,0.03,0.07,0.09,0.09,0.18c0.04,0.3,0.05,0.44,0.09,0.74c0.17-0.34,0.38-0.6,0.65-0.8c0.26-0.19,0.58-0.29,0.94-0.29
				c0.15,0,0.28,0.02,0.4,0.04c0.12,0.03,0.23,0.07,0.33,0.13c-0.05,0.25-0.08,0.37-0.13,0.62c-0.03,0.08-0.08,0.12-0.16,0.12
				c-0.05,0-0.12-0.02-0.22-0.05c-0.1-0.03-0.24-0.04-0.42-0.04c-0.32,0-0.59,0.09-0.8,0.27c-0.21,0.17-0.38,0.43-0.51,0.75
				c0.04,1.21,0.06,1.82,0.11,3.03C250.1,35.8,249.93,35.8,249.59,35.82z"/>
			<path class="st5" d="M256.79,36.02c-0.15-0.02-0.22-0.02-0.37-0.04c-0.08-0.01-0.15-0.03-0.2-0.06
				c-0.05-0.03-0.08-0.09-0.08-0.17c-0.02-0.18-0.03-0.27-0.05-0.45c-0.14,0.1-0.27,0.19-0.4,0.27c-0.13,0.08-0.26,0.14-0.4,0.19
				s-0.28,0.09-0.44,0.11c-0.15,0.02-0.32,0.03-0.5,0.02c-0.19-0.01-0.36-0.04-0.52-0.1c-0.16-0.06-0.3-0.14-0.42-0.25
				s-0.21-0.24-0.28-0.4s-0.1-0.35-0.1-0.57c0-0.19,0.06-0.37,0.18-0.54c0.11-0.17,0.3-0.32,0.55-0.45s0.58-0.22,0.98-0.28
				c0.4-0.06,0.9-0.07,1.48-0.02c0.01-0.15,0.02-0.22,0.03-0.37c0.03-0.37-0.03-0.66-0.18-0.86c-0.16-0.2-0.41-0.32-0.75-0.35
				c-0.23-0.02-0.42,0-0.58,0.04s-0.29,0.09-0.41,0.15c-0.12,0.06-0.22,0.11-0.3,0.16s-0.16,0.07-0.24,0.07
				c-0.06,0-0.12-0.02-0.16-0.05c-0.05-0.03-0.08-0.07-0.11-0.11c-0.06-0.11-0.09-0.16-0.16-0.27c0.3-0.25,0.62-0.42,0.97-0.53
				s0.73-0.15,1.15-0.12c0.3,0.02,0.56,0.09,0.79,0.2c0.22,0.11,0.41,0.25,0.55,0.42c0.14,0.17,0.24,0.37,0.29,0.6
				c0.05,0.23,0.07,0.48,0.04,0.74C256.99,34.21,256.92,34.81,256.79,36.02z M254.62,35.32c0.15,0.01,0.29,0,0.42-0.02
				s0.25-0.05,0.36-0.1s0.23-0.1,0.34-0.17s0.22-0.15,0.32-0.24c0.04-0.39,0.05-0.59,0.09-0.98c-0.41-0.04-0.76-0.04-1.05-0.01
				c-0.29,0.03-0.52,0.08-0.71,0.15s-0.32,0.16-0.4,0.26c-0.09,0.1-0.13,0.22-0.14,0.35c-0.01,0.13,0.01,0.23,0.05,0.33
				c0.04,0.09,0.09,0.17,0.16,0.23s0.15,0.11,0.24,0.14C254.41,35.3,254.51,35.32,254.62,35.32z"/>
			<path class="st5" d="M259.5,36.49c-0.38-0.07-0.65-0.22-0.82-0.46c-0.17-0.24-0.23-0.55-0.17-0.94c0.17-1.15,0.26-1.73,0.43-2.88
				c-0.25-0.04-0.38-0.06-0.63-0.09c-0.06-0.01-0.1-0.03-0.13-0.06c-0.03-0.03-0.05-0.08-0.04-0.14c0.02-0.13,0.03-0.2,0.04-0.33
				c0.35,0.01,0.53,0.01,0.88,0.02c0.17-0.57,0.26-0.85,0.44-1.42c0.01-0.05,0.04-0.08,0.09-0.1c0.04-0.02,0.1-0.03,0.16-0.02
				c0.19,0.03,0.29,0.05,0.49,0.08c-0.11,0.65-0.16,0.97-0.27,1.62c0.61,0.1,0.91,0.16,1.51,0.28c-0.05,0.24-0.07,0.36-0.12,0.59
				c-0.6-0.12-0.89-0.18-1.49-0.28c-0.19,1.13-0.28,1.69-0.47,2.82c-0.03,0.2-0.01,0.35,0.07,0.46c0.08,0.11,0.2,0.18,0.36,0.21
				c0.09,0.02,0.17,0.02,0.24,0.01c0.07-0.01,0.13-0.03,0.18-0.04c0.05-0.02,0.1-0.04,0.14-0.05c0.04-0.02,0.07-0.02,0.1-0.02
				c0.04,0.01,0.08,0.04,0.1,0.1c0.07,0.18,0.1,0.26,0.17,0.44c-0.17,0.1-0.37,0.17-0.59,0.21
				C259.93,36.53,259.72,36.53,259.5,36.49z"/>
			<path class="st5" d="M264.72,32.64c0.31,0.09,0.59,0.21,0.82,0.38c0.24,0.17,0.42,0.37,0.56,0.6c0.14,0.23,0.21,0.49,0.24,0.77
				c0.02,0.29-0.02,0.59-0.12,0.91c-0.04,0.13-0.08,0.2-0.12,0.24c-0.04,0.03-0.1,0.04-0.18,0.01c-1.31-0.42-1.97-0.6-3.29-0.92
				c-0.06,0.29-0.08,0.56-0.06,0.79c0.02,0.24,0.09,0.44,0.18,0.62c0.1,0.18,0.23,0.33,0.39,0.44c0.16,0.12,0.36,0.21,0.58,0.27
				c0.21,0.06,0.4,0.09,0.56,0.08c0.17,0,0.31-0.01,0.44-0.04c0.13-0.02,0.23-0.04,0.32-0.07c0.09-0.02,0.16-0.03,0.21-0.01
				c0.07,0.02,0.11,0.06,0.14,0.13c0.06,0.15,0.09,0.22,0.14,0.37c-0.14,0.09-0.3,0.15-0.47,0.19c-0.17,0.04-0.34,0.07-0.52,0.08
				c-0.18,0.01-0.36,0-0.54-0.02c-0.18-0.02-0.36-0.06-0.53-0.1c-0.32-0.09-0.61-0.22-0.86-0.4s-0.45-0.39-0.6-0.65
				c-0.15-0.26-0.26-0.55-0.3-0.89c-0.05-0.33-0.03-0.7,0.06-1.1c0.07-0.32,0.19-0.61,0.36-0.87c0.17-0.26,0.39-0.47,0.64-0.62
				c0.26-0.16,0.55-0.26,0.88-0.3C263.98,32.5,264.34,32.53,264.72,32.64z M264.58,33.24c-0.44-0.12-0.81-0.1-1.12,0.07
				c-0.31,0.16-0.54,0.44-0.69,0.83c1.1,0.26,1.64,0.41,2.73,0.74c0.06-0.19,0.08-0.36,0.07-0.54c-0.01-0.17-0.05-0.33-0.13-0.48
				c-0.08-0.15-0.19-0.27-0.33-0.38C264.96,33.37,264.78,33.29,264.58,33.24z"/>
		</g>
	</g>
</g>
<g>
	<g>
		<path class="st5" d="M237.44,142.24c-0.39-0.12-0.59-0.18-0.98-0.31c0.79-2.43,1.18-3.65,1.97-6.08c0.34,0.11,0.51,0.16,0.85,0.26
			C238.55,138.57,238.18,139.79,237.44,142.24z"/>
		<path class="st5" d="M240.8,143.19c-0.41-0.09-0.7-0.26-0.87-0.51s-0.21-0.55-0.12-0.92c0.27-1.07,0.4-1.61,0.67-2.68
			c-0.23-0.06-0.34-0.09-0.57-0.15c-0.05-0.01-0.09-0.04-0.12-0.08c-0.03-0.04-0.03-0.08-0.02-0.14c0.03-0.12,0.05-0.18,0.08-0.31
			c0.32,0.05,0.47,0.07,0.79,0.11c0.21-0.52,0.32-0.78,0.52-1.31c0.02-0.04,0.04-0.07,0.08-0.09s0.08-0.02,0.14-0.01
			c0.16,0.04,0.24,0.06,0.4,0.09c-0.14,0.61-0.21,0.91-0.35,1.52c0.54,0.12,0.81,0.18,1.35,0.29c-0.04,0.23-0.07,0.34-0.11,0.56
			c-0.55-0.11-0.82-0.17-1.37-0.29c-0.24,1.06-0.37,1.58-0.61,2.64c-0.04,0.19-0.02,0.34,0.06,0.45s0.21,0.19,0.37,0.23
			c0.09,0.02,0.18,0.03,0.25,0.02s0.14-0.02,0.19-0.03s0.1-0.03,0.14-0.05c0.04-0.01,0.07-0.02,0.1-0.01
			c0.05,0.01,0.08,0.04,0.11,0.1c0.08,0.17,0.11,0.25,0.19,0.42c-0.18,0.1-0.39,0.16-0.63,0.18
			C241.27,143.25,241.04,143.24,240.8,143.19z"/>
		<path class="st5" d="M245.72,139.33c0.28,0.04,0.54,0.11,0.77,0.23c0.23,0.12,0.43,0.27,0.59,0.45c0.16,0.19,0.28,0.41,0.36,0.67
			s0.11,0.55,0.08,0.87c-0.01,0.12-0.03,0.21-0.06,0.24c-0.03,0.04-0.09,0.06-0.17,0.05c-1.34-0.11-2-0.2-3.33-0.41
			c-0.04,0.28-0.03,0.53,0.01,0.76c0.05,0.22,0.13,0.41,0.25,0.57s0.28,0.29,0.46,0.39c0.19,0.1,0.41,0.16,0.65,0.19
			c0.23,0.03,0.43,0.03,0.6,0c0.17-0.03,0.32-0.06,0.44-0.1s0.23-0.08,0.31-0.12s0.15-0.06,0.21-0.05c0.07,0.01,0.13,0.04,0.17,0.09
			c0.09,0.12,0.14,0.19,0.23,0.31c-0.12,0.11-0.27,0.2-0.43,0.27c-0.17,0.07-0.34,0.13-0.53,0.17s-0.38,0.06-0.58,0.07
			c-0.2,0.01-0.39,0-0.58-0.03c-0.36-0.05-0.69-0.14-0.98-0.29s-0.53-0.34-0.71-0.58c-0.19-0.24-0.31-0.51-0.38-0.83
			s-0.07-0.67,0-1.05c0.06-0.31,0.16-0.59,0.31-0.84s0.34-0.46,0.57-0.62c0.23-0.17,0.48-0.28,0.78-0.36
			C245.06,139.29,245.38,139.28,245.72,139.33z M245.67,139.91c-0.41-0.05-0.74,0.01-1.01,0.2c-0.27,0.18-0.46,0.46-0.58,0.84
			c1.07,0.17,1.61,0.24,2.69,0.35c0.02-0.18,0.01-0.35-0.03-0.51c-0.04-0.16-0.11-0.3-0.2-0.42s-0.21-0.22-0.36-0.3
			C246.03,139.98,245.86,139.93,245.67,139.91z"/>
		<path class="st5" d="M248.51,144.18c0.1-1.8,0.15-2.71,0.25-4.51c0.19,0.01,0.29,0.02,0.48,0.02c0.09,0,0.15,0.02,0.19,0.06
			c0.03,0.03,0.06,0.09,0.06,0.17c0.01,0.28,0.02,0.42,0.03,0.71c0.18-0.31,0.39-0.55,0.64-0.72s0.53-0.25,0.85-0.25
			c0.13,0,0.25,0.01,0.36,0.04s0.21,0.07,0.3,0.12c-0.04,0.24-0.06,0.36-0.1,0.59c-0.02,0.07-0.07,0.11-0.15,0.11
			c-0.04,0-0.11-0.01-0.21-0.04c-0.09-0.03-0.22-0.04-0.39-0.04c-0.3,0-0.55,0.07-0.75,0.23c-0.2,0.16-0.38,0.38-0.53,0.68
			c-0.04,1.15-0.06,1.72-0.1,2.87C249.07,144.21,248.88,144.2,248.51,144.18z"/>
		<path class="st5" d="M256.39,143.96c-0.16,0.02-0.25,0.03-0.41,0.04c-0.09,0.01-0.16,0-0.22-0.01c-0.06-0.02-0.1-0.07-0.12-0.14
			c-0.06-0.16-0.09-0.24-0.14-0.41c-0.13,0.12-0.25,0.23-0.38,0.32c-0.12,0.09-0.26,0.18-0.4,0.25s-0.29,0.12-0.46,0.16
			c-0.16,0.04-0.35,0.07-0.55,0.08c-0.21,0.01-0.4,0-0.58-0.05c-0.18-0.04-0.34-0.11-0.47-0.2c-0.14-0.09-0.24-0.22-0.32-0.36
			c-0.08-0.15-0.12-0.33-0.13-0.53c0-0.18,0.05-0.35,0.15-0.52c0.11-0.17,0.28-0.32,0.52-0.46s0.55-0.26,0.94-0.36
			c0.39-0.11,0.86-0.18,1.43-0.23c-0.01-0.14-0.02-0.21-0.03-0.35c-0.03-0.35-0.14-0.61-0.32-0.78c-0.18-0.17-0.42-0.24-0.74-0.21
			c-0.21,0.01-0.38,0.05-0.52,0.11s-0.26,0.12-0.36,0.18c-0.1,0.07-0.19,0.13-0.26,0.18s-0.15,0.08-0.22,0.08
			c-0.06,0-0.11-0.01-0.15-0.04s-0.08-0.06-0.11-0.1c-0.06-0.1-0.1-0.15-0.16-0.25c0.26-0.25,0.54-0.44,0.84-0.57s0.63-0.21,1-0.24
			c0.27-0.02,0.51,0,0.72,0.07s0.4,0.16,0.56,0.3c0.16,0.13,0.28,0.3,0.38,0.5s0.16,0.43,0.19,0.68
			C256.2,142.24,256.26,142.81,256.39,143.96z M253.96,143.68c0.16-0.01,0.31-0.03,0.44-0.07c0.13-0.04,0.25-0.09,0.37-0.15
			c0.11-0.06,0.22-0.13,0.32-0.22c0.1-0.08,0.2-0.18,0.29-0.28c-0.03-0.37-0.05-0.56-0.09-0.93c-0.41,0.04-0.75,0.09-1.04,0.15
			c-0.28,0.07-0.51,0.14-0.69,0.22c-0.18,0.08-0.3,0.18-0.38,0.28c-0.08,0.11-0.11,0.22-0.11,0.34c0.01,0.12,0.03,0.22,0.08,0.31
			c0.05,0.08,0.11,0.15,0.19,0.2s0.17,0.09,0.27,0.11C253.72,143.68,253.83,143.69,253.96,143.68z"/>
		<path class="st5" d="M259.39,143.6c-0.41,0.07-0.75,0.03-1-0.14c-0.25-0.16-0.4-0.43-0.46-0.8c-0.16-1.09-0.24-1.64-0.41-2.73
			c-0.23,0.03-0.35,0.05-0.58,0.08c-0.05,0.01-0.1,0-0.13-0.03c-0.04-0.02-0.06-0.06-0.07-0.12c-0.02-0.13-0.02-0.19-0.04-0.31
			c0.31-0.08,0.46-0.12,0.77-0.2c-0.01-0.56-0.01-0.85-0.02-1.41c0-0.05,0.01-0.08,0.04-0.12s0.07-0.05,0.12-0.06
			c0.16-0.03,0.24-0.04,0.41-0.07c0.1,0.61,0.15,0.92,0.26,1.53c0.54-0.09,0.81-0.14,1.35-0.25c0.05,0.23,0.07,0.34,0.11,0.56
			c-0.55,0.11-0.82,0.16-1.37,0.25c0.18,1.07,0.27,1.6,0.45,2.67c0.03,0.19,0.11,0.32,0.23,0.39c0.12,0.07,0.26,0.09,0.43,0.06
			c0.09-0.02,0.18-0.04,0.24-0.08c0.07-0.04,0.12-0.07,0.17-0.11c0.05-0.04,0.08-0.07,0.12-0.1c0.03-0.03,0.06-0.05,0.09-0.05
			c0.05-0.01,0.09,0.01,0.14,0.05c0.13,0.13,0.2,0.19,0.34,0.32c-0.13,0.16-0.3,0.29-0.51,0.41
			C259.85,143.48,259.62,143.56,259.39,143.6z"/>
		<path class="st5" d="M262.46,138.14c0.28-0.08,0.55-0.11,0.81-0.09s0.5,0.08,0.72,0.19s0.42,0.27,0.6,0.48
			c0.17,0.21,0.31,0.46,0.41,0.77c0.04,0.12,0.05,0.2,0.03,0.25s-0.06,0.09-0.14,0.11c-1.29,0.41-1.94,0.59-3.25,0.91
			c0.07,0.28,0.17,0.51,0.3,0.69c0.13,0.19,0.28,0.33,0.45,0.43c0.17,0.1,0.37,0.16,0.58,0.18c0.21,0.02,0.44-0.01,0.68-0.07
			c0.22-0.06,0.41-0.14,0.56-0.23s0.27-0.18,0.37-0.27c0.1-0.09,0.18-0.16,0.25-0.23c0.06-0.07,0.12-0.11,0.18-0.13
			c0.07-0.02,0.14-0.02,0.19,0.02c0.13,0.08,0.2,0.12,0.34,0.2c-0.07,0.15-0.17,0.29-0.3,0.42c-0.13,0.13-0.27,0.25-0.43,0.36
			s-0.33,0.2-0.51,0.28c-0.18,0.08-0.37,0.15-0.55,0.2c-0.36,0.1-0.7,0.13-1.02,0.11c-0.33-0.03-0.62-0.11-0.89-0.26
			c-0.26-0.15-0.49-0.35-0.67-0.62c-0.18-0.27-0.32-0.59-0.4-0.97c-0.07-0.31-0.08-0.61-0.03-0.9s0.14-0.55,0.28-0.79
			c0.15-0.24,0.34-0.45,0.58-0.63C261.84,138.37,262.12,138.24,262.46,138.14z M262.63,138.7c-0.4,0.11-0.69,0.3-0.87,0.57
			s-0.25,0.61-0.22,1c1.06-0.25,1.59-0.4,2.64-0.72c-0.05-0.18-0.13-0.33-0.23-0.46s-0.21-0.23-0.35-0.31
			c-0.13-0.08-0.28-0.12-0.45-0.14C263,138.63,262.82,138.65,262.63,138.7z"/>
	</g>
</g>
<rect x="20.15" y="77.48" class="st6" width="85.22" height="37.88"/>
<text transform="matrix(1 0 0 1 30.1283 85.5225)" class="st7 st8 st9">Idea about  </text>
<text transform="matrix(1 0 0 1 32.0783 99.0725)" class="st7 st8 st9">a problem</text>
<rect x="397.41" y="77.48" class="st6" width="85.22" height="37.88"/>
<text transform="matrix(1 0 0 1 404.2743 85.5225)" class="st7 st8 st9">Solution to  </text>
<text transform="matrix(1 0 0 1 402.9843 99.0725)" class="st7 st8 st9">the problem</text>
<polygon class="st10" points="386.09,89.58 319,156.67 319,22.5 "/>
<rect x="134.68" y="83.9" class="st6" width="289.33" height="55.76"/>
<g class="st11">
	<path class="st12" d="M142.42,88.03c0,0.57-0.1,1.09-0.29,1.57c-0.2,0.48-0.47,0.89-0.82,1.24c-0.35,0.35-0.78,0.62-1.28,0.82
		s-1.05,0.29-1.66,0.29h-3.04v-7.83h3.04c0.61,0,1.16,0.1,1.66,0.29c0.5,0.2,0.93,0.47,1.28,0.82c0.35,0.35,0.63,0.76,0.82,1.24
		C142.33,86.94,142.42,87.46,142.42,88.03z M140.57,88.03c0-0.39-0.05-0.74-0.15-1.05c-0.1-0.31-0.24-0.58-0.43-0.79
		c-0.19-0.22-0.42-0.38-0.69-0.5c-0.27-0.12-0.58-0.17-0.93-0.17h-1.21v5.03h1.21c0.35,0,0.66-0.06,0.93-0.17
		c0.27-0.12,0.5-0.28,0.69-0.5s0.33-0.48,0.43-0.79C140.52,88.77,140.57,88.42,140.57,88.03z"/>
	<path class="st12" d="M145.21,84.85c0,0.13-0.03,0.26-0.08,0.37s-0.13,0.22-0.22,0.31c-0.09,0.09-0.2,0.16-0.32,0.21
		c-0.12,0.05-0.26,0.08-0.4,0.08c-0.14,0-0.26-0.03-0.38-0.08c-0.12-0.05-0.22-0.12-0.31-0.21s-0.16-0.19-0.21-0.31
		c-0.05-0.12-0.08-0.24-0.08-0.37c0-0.14,0.03-0.26,0.08-0.38c0.05-0.12,0.12-0.22,0.21-0.31c0.09-0.09,0.2-0.16,0.31-0.21
		s0.25-0.08,0.38-0.08c0.14,0,0.27,0.03,0.4,0.08s0.23,0.12,0.32,0.21c0.09,0.09,0.17,0.19,0.22,0.31
		C145.18,84.58,145.21,84.71,145.21,84.85z M145.01,86.37v5.57h-1.67v-5.57H145.01z"/>
	<path class="st12" d="M149.76,87.59c-0.04,0.07-0.09,0.12-0.14,0.14c-0.05,0.03-0.11,0.04-0.19,0.04c-0.08,0-0.16-0.02-0.24-0.05
		c-0.08-0.03-0.16-0.07-0.25-0.11c-0.09-0.04-0.19-0.08-0.31-0.11c-0.11-0.03-0.25-0.05-0.39-0.05c-0.21,0-0.37,0.04-0.49,0.12
		c-0.11,0.08-0.17,0.19-0.17,0.34c0,0.1,0.04,0.19,0.11,0.26c0.07,0.07,0.17,0.13,0.29,0.18c0.12,0.05,0.26,0.1,0.41,0.15
		c0.15,0.05,0.31,0.1,0.47,0.16c0.16,0.06,0.32,0.12,0.47,0.2c0.15,0.08,0.29,0.17,0.41,0.29c0.12,0.11,0.22,0.25,0.29,0.41
		s0.11,0.35,0.11,0.58c0,0.28-0.05,0.53-0.15,0.76c-0.1,0.23-0.25,0.43-0.45,0.6c-0.2,0.17-0.44,0.3-0.74,0.39s-0.63,0.14-1.01,0.14
		c-0.19,0-0.38-0.02-0.57-0.05s-0.37-0.08-0.55-0.15c-0.18-0.06-0.34-0.13-0.49-0.22s-0.28-0.17-0.39-0.27l0.39-0.61
		c0.05-0.07,0.1-0.13,0.17-0.17s0.15-0.06,0.25-0.06c0.1,0,0.18,0.02,0.26,0.06c0.08,0.04,0.16,0.09,0.25,0.14
		c0.09,0.05,0.19,0.1,0.31,0.14c0.12,0.04,0.27,0.06,0.45,0.06c0.13,0,0.24-0.01,0.33-0.04c0.09-0.03,0.16-0.06,0.21-0.11
		c0.05-0.05,0.09-0.1,0.12-0.16c0.03-0.06,0.04-0.12,0.04-0.18c0-0.11-0.04-0.2-0.11-0.27s-0.17-0.13-0.3-0.19
		c-0.12-0.05-0.26-0.1-0.42-0.14c-0.16-0.04-0.31-0.1-0.48-0.15s-0.32-0.13-0.48-0.21c-0.16-0.08-0.29-0.18-0.42-0.31
		c-0.12-0.12-0.22-0.28-0.3-0.45c-0.08-0.18-0.11-0.4-0.11-0.65c0-0.24,0.05-0.46,0.14-0.67s0.23-0.4,0.41-0.56s0.41-0.29,0.69-0.38
		s0.6-0.14,0.97-0.14c0.2,0,0.4,0.02,0.58,0.05c0.19,0.04,0.36,0.09,0.53,0.15c0.17,0.06,0.32,0.14,0.45,0.23
		c0.14,0.09,0.26,0.18,0.36,0.29L149.76,87.59z"/>
	<path class="st12" d="M155.1,87.69c-0.05,0.06-0.1,0.11-0.15,0.15c-0.05,0.04-0.11,0.05-0.2,0.05c-0.08,0-0.16-0.02-0.22-0.06
		c-0.07-0.04-0.14-0.08-0.22-0.13c-0.08-0.05-0.18-0.09-0.29-0.13c-0.11-0.04-0.25-0.06-0.41-0.06c-0.2,0-0.38,0.04-0.53,0.11
		c-0.15,0.08-0.27,0.18-0.37,0.32s-0.17,0.31-0.21,0.51c-0.05,0.2-0.07,0.43-0.07,0.68c0,0.53,0.1,0.94,0.31,1.23
		c0.21,0.29,0.49,0.43,0.85,0.43c0.19,0,0.35-0.02,0.46-0.07c0.11-0.05,0.21-0.1,0.29-0.16c0.08-0.06,0.15-0.11,0.22-0.16
		s0.15-0.08,0.25-0.08c0.13,0,0.23,0.05,0.3,0.14l0.48,0.6c-0.17,0.2-0.35,0.36-0.54,0.48c-0.19,0.12-0.38,0.22-0.58,0.29
		c-0.2,0.07-0.4,0.12-0.6,0.15c-0.2,0.03-0.4,0.04-0.59,0.04c-0.34,0-0.67-0.06-0.97-0.19c-0.31-0.13-0.58-0.32-0.82-0.56
		c-0.23-0.25-0.42-0.55-0.56-0.91c-0.14-0.36-0.21-0.77-0.21-1.22c0-0.4,0.06-0.78,0.18-1.12c0.12-0.35,0.3-0.65,0.53-0.91
		c0.23-0.26,0.52-0.46,0.87-0.6c0.35-0.15,0.75-0.22,1.2-0.22c0.44,0,0.82,0.07,1.15,0.21c0.33,0.14,0.63,0.34,0.89,0.61
		L155.1,87.69z"/>
	<path class="st12" d="M158.79,86.29c0.42,0,0.81,0.07,1.16,0.2c0.35,0.13,0.65,0.32,0.89,0.57s0.44,0.55,0.58,0.9
		c0.14,0.35,0.21,0.75,0.21,1.19c0,0.44-0.07,0.84-0.21,1.2c-0.14,0.36-0.33,0.66-0.58,0.91s-0.55,0.44-0.89,0.58
		c-0.35,0.13-0.73,0.2-1.16,0.2c-0.43,0-0.81-0.07-1.16-0.2c-0.35-0.13-0.65-0.33-0.9-0.58s-0.45-0.55-0.59-0.91
		c-0.14-0.36-0.21-0.76-0.21-1.2c0-0.44,0.07-0.84,0.21-1.19c0.14-0.35,0.33-0.65,0.59-0.9s0.55-0.44,0.9-0.57
		C157.97,86.35,158.36,86.29,158.79,86.29z M158.79,90.79c0.38,0,0.67-0.13,0.85-0.41s0.27-0.68,0.27-1.23
		c0-0.55-0.09-0.96-0.27-1.23s-0.46-0.4-0.85-0.4c-0.39,0-0.68,0.13-0.86,0.4s-0.27,0.68-0.27,1.23c0,0.55,0.09,0.96,0.27,1.23
		S158.39,90.79,158.79,90.79z"/>
	<path class="st12" d="M165.4,91.94h-1.52l-2.16-5.57h1.39c0.12,0,0.22,0.03,0.3,0.08c0.08,0.06,0.13,0.12,0.16,0.21l0.77,2.5
		c0.06,0.2,0.12,0.4,0.17,0.6s0.1,0.39,0.14,0.58c0.04-0.19,0.09-0.39,0.15-0.58c0.06-0.19,0.12-0.39,0.18-0.6l0.81-2.5
		c0.03-0.08,0.08-0.15,0.16-0.21c0.08-0.05,0.17-0.08,0.28-0.08h1.32L165.4,91.94z"/>
	<path class="st12" d="M170.43,86.29c0.37,0,0.71,0.06,1.01,0.17c0.31,0.12,0.57,0.28,0.79,0.5c0.22,0.22,0.39,0.49,0.52,0.8
		c0.12,0.32,0.19,0.68,0.19,1.08c0,0.12-0.01,0.23-0.02,0.31c-0.01,0.08-0.03,0.14-0.06,0.19c-0.03,0.05-0.07,0.08-0.12,0.1
		s-0.11,0.03-0.19,0.03h-3.21c0.05,0.47,0.2,0.8,0.42,1.01c0.23,0.21,0.52,0.31,0.89,0.31c0.19,0,0.36-0.02,0.5-0.07
		c0.14-0.05,0.26-0.1,0.37-0.16s0.21-0.11,0.3-0.16c0.09-0.05,0.19-0.07,0.29-0.07c0.13,0,0.23,0.05,0.3,0.14l0.48,0.6
		c-0.17,0.2-0.36,0.36-0.56,0.48c-0.2,0.12-0.4,0.22-0.61,0.29c-0.21,0.07-0.42,0.12-0.63,0.15c-0.21,0.03-0.41,0.04-0.6,0.04
		c-0.39,0-0.76-0.06-1.1-0.19c-0.34-0.13-0.64-0.32-0.9-0.57c-0.26-0.25-0.46-0.56-0.61-0.93c-0.15-0.37-0.22-0.81-0.22-1.3
		c0-0.37,0.06-0.72,0.19-1.06c0.13-0.33,0.31-0.62,0.55-0.88c0.24-0.25,0.53-0.45,0.86-0.6C169.62,86.36,170.01,86.29,170.43,86.29z
		 M170.46,87.43c-0.32,0-0.57,0.09-0.75,0.27c-0.18,0.18-0.3,0.44-0.35,0.78h2.08c0-0.13-0.02-0.26-0.05-0.39
		c-0.03-0.12-0.09-0.24-0.17-0.34c-0.08-0.1-0.18-0.18-0.3-0.24C170.79,87.47,170.64,87.43,170.46,87.43z"/>
	<path class="st12" d="M173.89,91.94v-5.57h0.99c0.08,0,0.15,0.01,0.21,0.02c0.06,0.01,0.1,0.04,0.14,0.07s0.07,0.07,0.09,0.12
		c0.02,0.05,0.04,0.11,0.05,0.18l0.09,0.52c0.2-0.31,0.43-0.56,0.69-0.75c0.25-0.18,0.53-0.27,0.83-0.27c0.25,0,0.46,0.06,0.61,0.18
		l-0.21,1.22c-0.01,0.08-0.04,0.13-0.09,0.16c-0.04,0.03-0.1,0.05-0.17,0.05c-0.06,0-0.13-0.01-0.22-0.02
		c-0.08-0.02-0.19-0.02-0.31-0.02c-0.44,0-0.78,0.23-1.03,0.7v3.42H173.89z"/>
	<path class="st12" d="M206.16,88.03c0,0.57-0.1,1.09-0.29,1.57c-0.2,0.48-0.47,0.89-0.82,1.24c-0.35,0.35-0.78,0.62-1.28,0.82
		s-1.05,0.29-1.66,0.29h-3.04v-7.83h3.04c0.61,0,1.16,0.1,1.66,0.29c0.5,0.2,0.93,0.47,1.28,0.82c0.35,0.35,0.63,0.76,0.82,1.24
		C206.06,86.94,206.16,87.46,206.16,88.03z M204.3,88.03c0-0.39-0.05-0.74-0.15-1.05c-0.1-0.31-0.24-0.58-0.43-0.79
		c-0.19-0.22-0.42-0.38-0.69-0.5c-0.27-0.12-0.58-0.17-0.93-0.17h-1.21v5.03h1.21c0.35,0,0.66-0.06,0.93-0.17
		c0.27-0.12,0.5-0.28,0.69-0.5s0.33-0.48,0.43-0.79C204.25,88.77,204.3,88.42,204.3,88.03z"/>
	<path class="st12" d="M209.42,86.29c0.37,0,0.71,0.06,1.01,0.17c0.31,0.12,0.57,0.28,0.79,0.5c0.22,0.22,0.39,0.49,0.52,0.8
		c0.12,0.32,0.19,0.68,0.19,1.08c0,0.12-0.01,0.23-0.02,0.31c-0.01,0.08-0.03,0.14-0.06,0.19c-0.03,0.05-0.07,0.08-0.12,0.1
		s-0.11,0.03-0.19,0.03h-3.21c0.05,0.47,0.2,0.8,0.42,1.01c0.23,0.21,0.52,0.31,0.89,0.31c0.19,0,0.36-0.02,0.5-0.07
		c0.14-0.05,0.26-0.1,0.37-0.16s0.21-0.11,0.3-0.16c0.09-0.05,0.19-0.07,0.29-0.07c0.13,0,0.23,0.05,0.3,0.14l0.48,0.6
		c-0.17,0.2-0.36,0.36-0.56,0.48c-0.2,0.12-0.4,0.22-0.61,0.29c-0.21,0.07-0.42,0.12-0.63,0.15c-0.21,0.03-0.41,0.04-0.6,0.04
		c-0.39,0-0.76-0.06-1.1-0.19c-0.34-0.13-0.64-0.32-0.9-0.57c-0.26-0.25-0.46-0.56-0.61-0.93c-0.15-0.37-0.22-0.81-0.22-1.3
		c0-0.37,0.06-0.72,0.19-1.06c0.13-0.33,0.31-0.62,0.55-0.88c0.24-0.25,0.53-0.45,0.86-0.6C208.61,86.36,208.99,86.29,209.42,86.29z
		 M209.45,87.43c-0.32,0-0.57,0.09-0.75,0.27c-0.18,0.18-0.3,0.44-0.35,0.78h2.08c0-0.13-0.02-0.26-0.05-0.39
		c-0.03-0.12-0.09-0.24-0.17-0.34c-0.08-0.1-0.18-0.18-0.3-0.24C209.78,87.47,209.63,87.43,209.45,87.43z"/>
	<path class="st12" d="M213.12,91.94v-4.43l-0.37-0.08c-0.13-0.03-0.23-0.07-0.3-0.13c-0.08-0.06-0.12-0.15-0.12-0.27v-0.66h0.78
		V86.3c0-0.34,0.06-0.65,0.17-0.95c0.12-0.3,0.3-0.56,0.54-0.78c0.24-0.22,0.55-0.4,0.93-0.52s0.83-0.19,1.35-0.19
		c0.16,0,0.33,0.01,0.5,0.02c0.17,0.02,0.32,0.04,0.45,0.07l-0.05,0.84c-0.01,0.09-0.05,0.15-0.13,0.18
		c-0.08,0.03-0.17,0.04-0.26,0.04c-0.37,0-0.68,0.03-0.92,0.09c-0.24,0.06-0.44,0.14-0.58,0.25c-0.14,0.11-0.24,0.25-0.3,0.42
		c-0.06,0.17-0.08,0.36-0.08,0.58v0.03h3.53v5.56h-1.67v-4.42h-1.82v4.42H213.12z"/>
	<path class="st12" d="M219.63,91.94v-5.57h1.03c0.1,0,0.19,0.02,0.26,0.07c0.07,0.05,0.12,0.12,0.15,0.21l0.1,0.32
		c0.11-0.1,0.22-0.19,0.33-0.28c0.11-0.09,0.24-0.16,0.37-0.22c0.13-0.06,0.27-0.11,0.42-0.14c0.15-0.03,0.32-0.05,0.5-0.05
		c0.3,0,0.57,0.05,0.81,0.16c0.23,0.11,0.43,0.25,0.59,0.44c0.16,0.19,0.28,0.41,0.37,0.67c0.08,0.26,0.12,0.54,0.12,0.85v3.54
		h-1.67V88.4c0-0.27-0.06-0.48-0.19-0.64c-0.13-0.15-0.31-0.23-0.55-0.23c-0.18,0-0.35,0.04-0.52,0.12
		c-0.16,0.08-0.31,0.18-0.46,0.32v3.97H219.63z"/>
	<path class="st12" d="M228.25,86.29c0.37,0,0.71,0.06,1.01,0.17c0.31,0.12,0.57,0.28,0.79,0.5c0.22,0.22,0.39,0.49,0.52,0.8
		c0.12,0.32,0.19,0.68,0.19,1.08c0,0.12-0.01,0.23-0.02,0.31c-0.01,0.08-0.03,0.14-0.06,0.19c-0.03,0.05-0.07,0.08-0.12,0.1
		s-0.11,0.03-0.19,0.03h-3.21c0.05,0.47,0.2,0.8,0.42,1.01c0.23,0.21,0.52,0.31,0.89,0.31c0.19,0,0.36-0.02,0.5-0.07
		c0.14-0.05,0.26-0.1,0.37-0.16s0.21-0.11,0.3-0.16c0.09-0.05,0.19-0.07,0.29-0.07c0.13,0,0.23,0.05,0.3,0.14l0.48,0.6
		c-0.17,0.2-0.36,0.36-0.56,0.48c-0.2,0.12-0.4,0.22-0.61,0.29c-0.21,0.07-0.42,0.12-0.63,0.15c-0.21,0.03-0.41,0.04-0.6,0.04
		c-0.39,0-0.76-0.06-1.1-0.19c-0.34-0.13-0.64-0.32-0.9-0.57c-0.26-0.25-0.46-0.56-0.61-0.93c-0.15-0.37-0.22-0.81-0.22-1.3
		c0-0.37,0.06-0.72,0.19-1.06c0.13-0.33,0.31-0.62,0.55-0.88c0.24-0.25,0.53-0.45,0.86-0.6C227.44,86.36,227.82,86.29,228.25,86.29z
		 M228.28,87.43c-0.32,0-0.57,0.09-0.75,0.27c-0.18,0.18-0.3,0.44-0.35,0.78h2.08c0-0.13-0.02-0.26-0.05-0.39
		c-0.03-0.12-0.09-0.24-0.17-0.34c-0.08-0.1-0.18-0.18-0.3-0.24C228.61,87.47,228.46,87.43,228.28,87.43z"/>
	<path class="st12" d="M276.13,88.03c0,0.57-0.1,1.09-0.29,1.57c-0.2,0.48-0.47,0.89-0.82,1.24c-0.35,0.35-0.78,0.62-1.28,0.82
		c-0.5,0.2-1.05,0.29-1.66,0.29h-3.04v-7.83h3.04c0.61,0,1.16,0.1,1.66,0.29c0.5,0.2,0.93,0.47,1.28,0.82
		c0.35,0.35,0.63,0.76,0.82,1.24C276.03,86.94,276.13,87.46,276.13,88.03z M274.27,88.03c0-0.39-0.05-0.74-0.15-1.05
		c-0.1-0.31-0.25-0.58-0.43-0.79c-0.19-0.22-0.42-0.38-0.69-0.5s-0.58-0.17-0.93-0.17h-1.21v5.03h1.21c0.35,0,0.66-0.06,0.93-0.17
		s0.5-0.28,0.69-0.5c0.19-0.22,0.33-0.48,0.43-0.79C274.22,88.77,274.27,88.42,274.27,88.03z"/>
	<path class="st12" d="M279.38,86.29c0.37,0,0.71,0.06,1.01,0.17c0.31,0.12,0.57,0.28,0.79,0.5c0.22,0.22,0.39,0.49,0.52,0.8
		c0.12,0.32,0.19,0.68,0.19,1.08c0,0.12-0.01,0.23-0.02,0.31c-0.01,0.08-0.03,0.14-0.06,0.19c-0.03,0.05-0.07,0.08-0.12,0.1
		c-0.05,0.02-0.11,0.03-0.18,0.03h-3.21c0.05,0.47,0.2,0.8,0.42,1.01c0.23,0.21,0.52,0.31,0.89,0.31c0.19,0,0.36-0.02,0.5-0.07
		c0.14-0.05,0.26-0.1,0.37-0.16s0.21-0.11,0.3-0.16c0.09-0.05,0.19-0.07,0.29-0.07c0.13,0,0.23,0.05,0.3,0.14l0.48,0.6
		c-0.17,0.2-0.36,0.36-0.56,0.48c-0.2,0.12-0.4,0.22-0.61,0.29c-0.21,0.07-0.42,0.12-0.63,0.15c-0.21,0.03-0.41,0.04-0.6,0.04
		c-0.39,0-0.76-0.06-1.1-0.19c-0.34-0.13-0.64-0.32-0.9-0.57c-0.26-0.25-0.46-0.56-0.61-0.93c-0.15-0.37-0.22-0.81-0.22-1.3
		c0-0.37,0.06-0.72,0.19-1.06c0.13-0.33,0.31-0.62,0.55-0.88c0.24-0.25,0.53-0.45,0.86-0.6C278.57,86.36,278.96,86.29,279.38,86.29z
		 M279.41,87.43c-0.32,0-0.57,0.09-0.75,0.27s-0.3,0.44-0.35,0.78h2.08c0-0.13-0.02-0.26-0.05-0.39c-0.03-0.12-0.09-0.24-0.17-0.34
		c-0.08-0.1-0.18-0.18-0.3-0.24C279.75,87.47,279.59,87.43,279.41,87.43z"/>
	<path class="st12" d="M285.71,91.94h-1.51l-2.16-5.57h1.39c0.12,0,0.22,0.03,0.3,0.08c0.08,0.06,0.13,0.12,0.16,0.21l0.77,2.5
		c0.06,0.2,0.12,0.4,0.17,0.6s0.1,0.39,0.14,0.58c0.04-0.19,0.09-0.39,0.15-0.58s0.12-0.39,0.18-0.6l0.81-2.5
		c0.03-0.08,0.08-0.15,0.16-0.21c0.08-0.05,0.17-0.08,0.28-0.08h1.32L285.71,91.94z"/>
	<path class="st12" d="M290.74,86.29c0.37,0,0.71,0.06,1.01,0.17c0.31,0.12,0.57,0.28,0.79,0.5c0.22,0.22,0.39,0.49,0.52,0.8
		c0.12,0.32,0.19,0.68,0.19,1.08c0,0.12-0.01,0.23-0.02,0.31c-0.01,0.08-0.03,0.14-0.06,0.19c-0.03,0.05-0.07,0.08-0.12,0.1
		c-0.05,0.02-0.11,0.03-0.18,0.03h-3.21c0.05,0.47,0.2,0.8,0.42,1.01c0.23,0.21,0.52,0.31,0.89,0.31c0.19,0,0.36-0.02,0.5-0.07
		c0.14-0.05,0.26-0.1,0.37-0.16s0.21-0.11,0.3-0.16c0.09-0.05,0.19-0.07,0.29-0.07c0.13,0,0.23,0.05,0.3,0.14l0.48,0.6
		c-0.17,0.2-0.36,0.36-0.56,0.48c-0.2,0.12-0.4,0.22-0.61,0.29c-0.21,0.07-0.42,0.12-0.63,0.15c-0.21,0.03-0.41,0.04-0.6,0.04
		c-0.39,0-0.76-0.06-1.1-0.19c-0.34-0.13-0.64-0.32-0.9-0.57c-0.26-0.25-0.46-0.56-0.61-0.93c-0.15-0.37-0.22-0.81-0.22-1.3
		c0-0.37,0.06-0.72,0.19-1.06c0.13-0.33,0.31-0.62,0.55-0.88c0.24-0.25,0.53-0.45,0.86-0.6C289.93,86.36,290.31,86.29,290.74,86.29z
		 M290.77,87.43c-0.32,0-0.57,0.09-0.75,0.27s-0.3,0.44-0.35,0.78h2.08c0-0.13-0.02-0.26-0.05-0.39c-0.03-0.12-0.09-0.24-0.17-0.34
		c-0.08-0.1-0.18-0.18-0.3-0.24C291.1,87.47,290.95,87.43,290.77,87.43z"/>
	<path class="st12" d="M295.92,83.9v8.04h-1.67V83.9H295.92z"/>
	<path class="st12" d="M299.74,86.29c0.42,0,0.81,0.07,1.16,0.2c0.35,0.13,0.64,0.32,0.89,0.57s0.44,0.55,0.58,0.9
		c0.14,0.35,0.21,0.75,0.21,1.19c0,0.44-0.07,0.84-0.21,1.2c-0.14,0.36-0.33,0.66-0.58,0.91s-0.55,0.44-0.89,0.58
		c-0.35,0.13-0.73,0.2-1.16,0.2c-0.43,0-0.81-0.07-1.16-0.2c-0.35-0.13-0.65-0.33-0.9-0.58c-0.25-0.25-0.45-0.55-0.58-0.91
		c-0.14-0.36-0.21-0.76-0.21-1.2c0-0.44,0.07-0.84,0.21-1.19c0.14-0.35,0.33-0.65,0.58-0.9c0.25-0.25,0.55-0.44,0.9-0.57
		C298.93,86.35,299.31,86.29,299.74,86.29z M299.74,90.79c0.38,0,0.67-0.13,0.85-0.41s0.27-0.68,0.27-1.23
		c0-0.55-0.09-0.96-0.27-1.23s-0.46-0.4-0.85-0.4c-0.39,0-0.68,0.13-0.87,0.4s-0.27,0.68-0.27,1.23c0,0.55,0.09,0.96,0.27,1.23
		S299.35,90.79,299.74,90.79z"/>
	<path class="st12" d="M303.49,93.71v-7.34h1.03c0.1,0,0.19,0.02,0.26,0.07c0.07,0.05,0.12,0.12,0.15,0.21l0.12,0.41
		c0.11-0.12,0.22-0.23,0.35-0.32c0.12-0.1,0.26-0.18,0.4-0.25c0.14-0.07,0.29-0.12,0.46-0.16c0.16-0.04,0.34-0.06,0.53-0.06
		c0.29,0,0.56,0.06,0.81,0.19s0.46,0.32,0.64,0.56c0.18,0.24,0.32,0.54,0.42,0.89c0.1,0.35,0.15,0.75,0.15,1.2
		c0,0.42-0.06,0.81-0.17,1.16c-0.12,0.35-0.28,0.66-0.49,0.92c-0.21,0.26-0.46,0.47-0.75,0.61c-0.29,0.15-0.62,0.22-0.97,0.22
		c-0.29,0-0.53-0.04-0.73-0.12c-0.2-0.08-0.38-0.19-0.54-0.33v2.14H303.49z M306.21,87.54c-0.12,0-0.23,0.01-0.33,0.03
		c-0.1,0.02-0.19,0.06-0.27,0.1s-0.16,0.1-0.23,0.16s-0.14,0.14-0.21,0.23v2.36c0.12,0.14,0.26,0.24,0.41,0.29s0.3,0.08,0.46,0.08
		c0.15,0,0.29-0.03,0.42-0.09c0.13-0.06,0.24-0.16,0.34-0.29c0.09-0.13,0.17-0.31,0.22-0.52s0.08-0.48,0.08-0.78
		c0-0.29-0.02-0.54-0.06-0.74c-0.04-0.2-0.1-0.36-0.18-0.49c-0.08-0.12-0.17-0.21-0.28-0.27C306.46,87.56,306.34,87.54,306.21,87.54
		z"/>
	<path class="st12" d="M339.61,88.03c0,0.57-0.1,1.09-0.29,1.57c-0.2,0.48-0.47,0.89-0.83,1.24c-0.35,0.35-0.78,0.62-1.28,0.82
		c-0.5,0.2-1.05,0.29-1.66,0.29h-3.04v-7.83h3.04c0.61,0,1.16,0.1,1.66,0.29c0.5,0.2,0.93,0.47,1.28,0.82
		c0.35,0.35,0.63,0.76,0.83,1.24C339.51,86.94,339.61,87.46,339.61,88.03z M337.75,88.03c0-0.39-0.05-0.74-0.15-1.05
		s-0.24-0.58-0.43-0.79c-0.19-0.22-0.42-0.38-0.69-0.5c-0.27-0.12-0.58-0.17-0.93-0.17h-1.21v5.03h1.21c0.35,0,0.66-0.06,0.93-0.17
		c0.27-0.12,0.5-0.28,0.69-0.5c0.19-0.22,0.33-0.48,0.43-0.79S337.75,88.42,337.75,88.03z"/>
	<path class="st12" d="M342.86,86.29c0.37,0,0.71,0.06,1.01,0.17c0.31,0.12,0.57,0.28,0.79,0.5c0.22,0.22,0.39,0.49,0.52,0.8
		c0.12,0.32,0.19,0.68,0.19,1.08c0,0.12-0.01,0.23-0.02,0.31c-0.01,0.08-0.03,0.14-0.06,0.19c-0.03,0.05-0.07,0.08-0.12,0.1
		c-0.05,0.02-0.11,0.03-0.18,0.03h-3.21c0.05,0.47,0.2,0.8,0.42,1.01c0.23,0.21,0.52,0.31,0.89,0.31c0.19,0,0.36-0.02,0.5-0.07
		c0.14-0.05,0.26-0.1,0.37-0.16s0.21-0.11,0.3-0.16c0.09-0.05,0.19-0.07,0.29-0.07c0.13,0,0.23,0.05,0.3,0.14l0.48,0.6
		c-0.17,0.2-0.36,0.36-0.56,0.48c-0.2,0.12-0.4,0.22-0.61,0.29c-0.21,0.07-0.42,0.12-0.63,0.15c-0.21,0.03-0.41,0.04-0.6,0.04
		c-0.39,0-0.76-0.06-1.1-0.19c-0.34-0.13-0.64-0.32-0.9-0.57c-0.26-0.25-0.46-0.56-0.61-0.93c-0.15-0.37-0.22-0.81-0.22-1.3
		c0-0.37,0.06-0.72,0.19-1.06c0.13-0.33,0.31-0.62,0.55-0.88c0.24-0.25,0.53-0.45,0.86-0.6C342.05,86.36,342.43,86.29,342.86,86.29z
		 M342.89,87.43c-0.32,0-0.57,0.09-0.75,0.27s-0.3,0.44-0.35,0.78h2.08c0-0.13-0.02-0.26-0.05-0.39c-0.03-0.12-0.09-0.24-0.17-0.34
		c-0.08-0.1-0.18-0.18-0.3-0.24C343.22,87.47,343.07,87.43,342.89,87.43z"/>
	<path class="st12" d="M348.04,83.9v8.04h-1.67V83.9H348.04z"/>
	<path class="st12" d="M351.29,84.85c0,0.13-0.03,0.26-0.08,0.37s-0.13,0.22-0.22,0.31s-0.2,0.16-0.33,0.21
		c-0.12,0.05-0.25,0.08-0.39,0.08c-0.14,0-0.26-0.03-0.38-0.08c-0.12-0.05-0.22-0.12-0.31-0.21c-0.09-0.09-0.16-0.19-0.21-0.31
		c-0.05-0.12-0.08-0.24-0.08-0.37c0-0.14,0.03-0.26,0.08-0.38c0.05-0.12,0.12-0.22,0.21-0.31c0.09-0.09,0.2-0.16,0.31-0.21
		s0.25-0.08,0.38-0.08c0.14,0,0.27,0.03,0.39,0.08c0.12,0.05,0.23,0.12,0.33,0.21c0.09,0.09,0.17,0.19,0.22,0.31
		C351.27,84.58,351.29,84.71,351.29,84.85z M351.1,86.37v5.57h-1.67v-5.57H351.1z"/>
	<path class="st12" d="M355.53,91.94h-1.51l-2.16-5.57h1.39c0.12,0,0.22,0.03,0.3,0.08c0.08,0.06,0.13,0.12,0.16,0.21l0.77,2.5
		c0.06,0.2,0.12,0.4,0.17,0.6s0.1,0.39,0.14,0.58c0.04-0.19,0.09-0.39,0.15-0.58s0.12-0.39,0.18-0.6l0.81-2.5
		c0.03-0.08,0.08-0.15,0.16-0.21c0.08-0.05,0.17-0.08,0.28-0.08h1.32L355.53,91.94z"/>
	<path class="st12" d="M360.55,86.29c0.37,0,0.71,0.06,1.01,0.17c0.31,0.12,0.57,0.28,0.79,0.5c0.22,0.22,0.39,0.49,0.52,0.8
		c0.12,0.32,0.19,0.68,0.19,1.08c0,0.12-0.01,0.23-0.02,0.31c-0.01,0.08-0.03,0.14-0.06,0.19c-0.03,0.05-0.07,0.08-0.12,0.1
		c-0.05,0.02-0.11,0.03-0.18,0.03h-3.21c0.05,0.47,0.2,0.8,0.42,1.01c0.23,0.21,0.52,0.31,0.89,0.31c0.19,0,0.36-0.02,0.5-0.07
		c0.14-0.05,0.26-0.1,0.37-0.16s0.21-0.11,0.3-0.16c0.09-0.05,0.19-0.07,0.29-0.07c0.13,0,0.23,0.05,0.3,0.14l0.48,0.6
		c-0.17,0.2-0.36,0.36-0.56,0.48c-0.2,0.12-0.4,0.22-0.61,0.29c-0.21,0.07-0.42,0.12-0.63,0.15c-0.21,0.03-0.41,0.04-0.6,0.04
		c-0.39,0-0.76-0.06-1.1-0.19c-0.34-0.13-0.64-0.32-0.9-0.57c-0.26-0.25-0.46-0.56-0.61-0.93c-0.15-0.37-0.22-0.81-0.22-1.3
		c0-0.37,0.06-0.72,0.19-1.06c0.13-0.33,0.31-0.62,0.55-0.88c0.24-0.25,0.53-0.45,0.86-0.6C359.75,86.36,360.13,86.29,360.55,86.29z
		 M360.59,87.43c-0.32,0-0.57,0.09-0.75,0.27s-0.3,0.44-0.35,0.78h2.08c0-0.13-0.02-0.26-0.05-0.39c-0.03-0.12-0.09-0.24-0.17-0.34
		c-0.08-0.1-0.18-0.18-0.3-0.24C360.92,87.47,360.77,87.43,360.59,87.43z"/>
	<path class="st12" d="M364.01,91.94v-5.57H365c0.08,0,0.15,0.01,0.21,0.02c0.06,0.01,0.1,0.04,0.14,0.07
		c0.04,0.03,0.07,0.07,0.09,0.12c0.02,0.05,0.04,0.11,0.05,0.18l0.09,0.52c0.2-0.31,0.43-0.56,0.69-0.75s0.53-0.27,0.83-0.27
		c0.25,0,0.46,0.06,0.61,0.18l-0.21,1.22c-0.01,0.08-0.04,0.13-0.09,0.16c-0.04,0.03-0.1,0.05-0.17,0.05
		c-0.06,0-0.13-0.01-0.22-0.02c-0.08-0.02-0.19-0.02-0.31-0.02c-0.44,0-0.78,0.23-1.03,0.7v3.42H364.01z"/>
</g>
</svg>
